<svg width="186" height="148" viewBox="0 0 186 148" fill="none" xmlns="http://www.w3.org/2000/svg">
<rect width="186" height="148" rx="30" fill="url(#paint0_linear_2_695)"/>
<path d="M140.811 36.28C140.467 35.2666 140.056 35 139.415 34.7466C138.012 34.2266 135.636 35.0133 135.636 35.0133C135.636 35.0133 51.523 65.2533 46.7177 68.6C45.683 69.32 45.3364 69.7466 45.1644 70.24C44.3337 72.6133 46.9217 73.6666 46.9217 73.6666L68.6017 80.7333C68.6017 80.7333 69.4097 80.8533 69.6977 80.6666C74.6297 77.5466 119.319 49.3333 121.896 48.3866C122.303 48.2666 122.604 48.4 122.524 48.68C121.492 52.3066 82.6777 86.8 82.6777 86.8C82.6777 86.8 82.5297 86.9866 82.4364 87.2L82.3857 87.1733L80.363 108.68C80.363 108.68 79.515 115.267 86.103 108.68C90.751 104.027 95.2484 100.133 97.499 98.2533C104.954 103.4 112.976 109.093 116.439 112.067C118.178 113.56 119.632 113.8 120.83 113.76C124.116 113.64 125.034 110.027 125.034 110.027C125.034 110.027 140.362 48.3333 140.874 40.0666C140.924 39.2533 140.994 38.7466 140.999 38.1866C141.008 37.4133 140.936 36.64 140.811 36.28Z" fill="white"/>
<defs>
<linearGradient id="paint0_linear_2_695" x1="93" y1="0" x2="93" y2="148" gradientUnits="userSpaceOnUse">
<stop stop-color="#0248FF"/>
<stop offset="1" stop-color="#012B99"/>
</linearGradient>
</defs>
</svg>
