<svg width="186" height="148" viewBox="0 0 186 148" fill="none" xmlns="http://www.w3.org/2000/svg">
<rect width="186" height="148" rx="30" fill="url(#paint0_linear_2_694)"/>
<path d="M71.6267 124.667C115.587 124.667 139.627 88.2494 139.627 56.6707C139.627 55.636 139.6 54.6054 139.56 53.5814C144.227 50.208 148.28 45.9986 151.48 41.2079C147.2 43.1093 142.587 44.3921 137.76 44.9694C142.693 42.0121 146.48 37.3293 148.267 31.7493C143.64 34.488 138.533 36.4786 133.093 37.5506C128.72 32.9053 122.52 30 115.64 30C102.44 30 91.7466 40.7026 91.7466 53.896C91.7466 55.772 91.9467 57.596 92.36 59.3453C72.4934 58.3466 54.8933 48.8373 43.1066 34.3773C41.0533 37.9067 39.8667 42.012 39.8667 46.388C39.8667 54.68 44.08 61.9987 50.5066 66.2814C46.5866 66.16 42.8933 65.0826 39.6799 63.2906C39.6666 63.3906 39.6667 63.4906 39.6667 63.596C39.6667 75.1706 47.9066 84.8334 58.84 87.0254C56.84 87.5707 54.7199 87.8654 52.5466 87.8654C50.9999 87.8654 49.5066 87.7133 48.0533 87.4346C51.0933 96.9293 59.92 103.839 70.3733 104.033C62.2 110.443 51.8934 114.263 40.6934 114.263C38.7734 114.263 36.8667 114.153 35 113.932C45.5733 120.709 58.1334 124.667 71.6267 124.667Z" fill="white"/>
<defs>
<linearGradient id="paint0_linear_2_694" x1="93" y1="0" x2="93" y2="148" gradientUnits="userSpaceOnUse">
<stop stop-color="#0248FF"/>
<stop offset="1" stop-color="#012B99"/>
</linearGradient>
</defs>
</svg>
