<svg width="639" height="34" viewBox="0 0 639 34" fill="none" xmlns="http://www.w3.org/2000/svg">
<path d="M0.492188 5.57812C0.492188 4.90625 0.523438 4.25 0.585938 3.60938C0.648438 2.96875 0.796875 2.39844 1.03125 1.89844C1.28125 1.38281 1.64062 0.96875 2.10938 0.65625C2.57812 0.34375 3.22656 0.1875 4.05469 0.1875C4.86719 0.1875 5.50781 0.34375 5.97656 0.65625C6.46094 0.96875 6.82031 1.38281 7.05469 1.89844C7.30469 2.39844 7.46094 2.96875 7.52344 3.60938C7.58594 4.25 7.61719 4.90625 7.61719 5.57812V12.9375H14.0391V5.57812C14.0391 4.90625 14.0703 4.25 14.1328 3.60938C14.1953 2.96875 14.3438 2.39844 14.5781 1.89844C14.8281 1.38281 15.1875 0.96875 15.6562 0.65625C16.125 0.34375 16.7734 0.1875 17.6016 0.1875C18.4141 0.1875 19.0547 0.34375 19.5234 0.65625C20.0078 0.96875 20.3672 1.38281 20.6016 1.89844C20.8516 2.39844 21.0078 2.96875 21.0703 3.60938C21.1328 4.25 21.1641 4.90625 21.1641 5.57812V27.6094C21.1641 28.2969 21.1328 28.9609 21.0703 29.6016C21.0078 30.2422 20.8516 30.8203 20.6016 31.3359C20.3672 31.8359 20.0078 32.2422 19.5234 32.5547C19.0547 32.8516 18.4141 33 17.6016 33C16.7734 33 16.125 32.8516 15.6562 32.5547C15.1875 32.2422 14.8281 31.8359 14.5781 31.3359C14.3438 30.8203 14.1953 30.2422 14.1328 29.6016C14.0703 28.9609 14.0391 28.2969 14.0391 27.6094V19.8281H7.61719V27.6094C7.61719 28.2969 7.58594 28.9609 7.52344 29.6016C7.46094 30.2422 7.30469 30.8203 7.05469 31.3359C6.82031 31.8359 6.46094 32.2422 5.97656 32.5547C5.50781 32.8516 4.86719 33 4.05469 33C3.22656 33 2.57812 32.8516 2.10938 32.5547C1.64062 32.2422 1.28125 31.8359 1.03125 31.3359C0.796875 30.8203 0.648438 30.2422 0.585938 29.6016C0.523438 28.9609 0.492188 28.2969 0.492188 27.6094V5.57812ZM40.3828 0.1875C41.0078 0.1875 41.6406 0.210938 42.2812 0.257812C42.9219 0.304688 43.5 0.4375 44.0156 0.65625C44.5312 0.875 44.9531 1.21094 45.2812 1.66406C45.6094 2.10156 45.7734 2.71875 45.7734 3.51562C45.7734 4.3125 45.6094 4.9375 45.2812 5.39062C44.9531 5.82812 44.5312 6.15625 44.0156 6.375C43.5 6.59375 42.9219 6.72656 42.2812 6.77344C41.6406 6.82031 41.0078 6.84375 40.3828 6.84375H34.8047V13.2188H37.7578C38.3828 13.2188 39.0078 13.2422 39.6328 13.2891C40.2734 13.3203 40.8359 13.4453 41.3203 13.6641C41.8203 13.8672 42.2266 14.1875 42.5391 14.625C42.8516 15.0469 43.0078 15.6406 43.0078 16.4062C43.0078 17.1875 42.8516 17.7891 42.5391 18.2109C42.2266 18.6328 41.8203 18.9531 41.3203 19.1719C40.8359 19.375 40.2734 19.5 39.6328 19.5469C39.0078 19.5781 38.3828 19.5938 37.7578 19.5938H34.8047V26.3438H40.3828C41.0078 26.3438 41.6406 26.3672 42.2812 26.4141C42.9219 26.4609 43.5 26.5938 44.0156 26.8125C44.5312 27.0156 44.9531 27.3438 45.2812 27.7969C45.6094 28.2344 45.7734 28.8438 45.7734 29.625C45.7734 30.4375 45.6016 31.0703 45.2578 31.5234C44.9297 31.9766 44.5078 32.3125 43.9922 32.5312C43.4766 32.75 42.8984 32.8828 42.2578 32.9297C41.6172 32.9766 40.9922 33 40.3828 33H31.1953C30.3203 33 29.6406 32.8438 29.1562 32.5312C28.6875 32.2188 28.3438 31.8125 28.125 31.3125C27.9062 30.7969 27.7734 30.2188 27.7266 29.5781C27.6953 28.9375 27.6797 28.2812 27.6797 27.6094V5.57812C27.6797 4.90625 27.6953 4.25 27.7266 3.60938C27.7734 2.96875 27.9062 2.39844 28.125 1.89844C28.3438 1.38281 28.6875 0.96875 29.1562 0.65625C29.6406 0.34375 30.3203 0.1875 31.1953 0.1875H40.3828ZM85.9453 0.328125C86.3828 0.328125 86.7891 0.40625 87.1641 0.5625C87.5547 0.71875 87.8984 0.9375 88.1953 1.21875C88.5078 1.48438 88.7734 1.8125 88.9922 2.20312C89.2109 2.57812 89.3672 2.98438 89.4609 3.42188L93.4922 22.125H94.2891C94.9453 19.0781 95.6172 15.9688 96.3047 12.7969C96.9922 9.60938 97.6797 6.48438 98.3672 3.42188C98.5078 2.82812 98.7188 2.28906 99 1.80469C99.25 1.39844 99.5938 1.03125 100.031 0.703125C100.484 0.359375 101.07 0.1875 101.789 0.1875C102.336 0.1875 102.812 0.289062 103.219 0.492188C103.641 0.679688 103.984 0.929688 104.25 1.24219C104.531 1.53906 104.734 1.86719 104.859 2.22656C105 2.58594 105.07 2.9375 105.07 3.28125C105.07 3.46875 105.062 3.64844 105.047 3.82031C105.031 3.99219 105.008 4.14062 104.977 4.26562C104.945 4.42188 104.914 4.5625 104.883 4.6875L98.4609 30.1875C98.2266 30.7188 97.9141 31.1875 97.5234 31.5938C97.1953 31.9531 96.7656 32.2812 96.2344 32.5781C95.7188 32.8594 95.0703 33 94.2891 33H93.4922C92.7109 33 92.0703 32.8594 91.5703 32.5781C91.0703 32.2812 90.6719 31.9531 90.375 31.5938C90.0312 31.1875 89.7734 30.7188 89.6016 30.1875L86.3203 16.4531H85.5234C85.0234 18.6719 84.4844 20.9609 83.9062 23.3203C83.3438 25.6797 82.8047 27.9688 82.2891 30.1875C82.0859 30.7188 81.8125 31.1875 81.4688 31.5938C81.1562 31.9531 80.75 32.2812 80.25 32.5781C79.7656 32.8594 79.1328 33 78.3516 33H77.5547C76.7734 33 76.1094 32.8594 75.5625 32.5781C75.0312 32.2812 74.5938 31.9531 74.25 31.5938C73.8438 31.1875 73.5234 30.7188 73.2891 30.1875L66.9609 4.6875C66.9297 4.5625 66.8984 4.42188 66.8672 4.26562C66.8359 4.14062 66.8125 3.99219 66.7969 3.82031C66.7812 3.64844 66.7734 3.46875 66.7734 3.28125C66.7734 2.9375 66.8359 2.58594 66.9609 2.22656C67.1016 1.86719 67.3047 1.53906 67.5703 1.24219C67.8516 0.929688 68.1953 0.679688 68.6016 0.492188C69.0234 0.289062 69.5078 0.1875 70.0547 0.1875C70.7734 0.1875 71.3516 0.359375 71.7891 0.703125C72.2422 1.03125 72.5938 1.39844 72.8438 1.80469C73.125 2.28906 73.3359 2.82812 73.4766 3.42188L77.5547 22.125H78.3516C78.6484 20.6875 78.9688 19.1797 79.3125 17.6016C79.6562 16.0078 80 14.4062 80.3438 12.7969C80.7031 11.1719 81.0547 9.57031 81.3984 7.99219C81.7578 6.39844 82.1016 4.875 82.4297 3.42188C82.6484 2.53125 83.0703 1.79688 83.6953 1.21875C84.3203 0.625 85.0703 0.328125 85.9453 0.328125ZM114.492 18.8438H121.945L118.477 6.28125H117.961L114.492 18.8438ZM129.211 21.1406C129.242 22.2031 129.281 23.2891 129.328 24.3984C129.375 25.5078 129.398 26.5781 129.398 27.6094V28.3125C129.398 28.9062 129.375 29.4844 129.328 30.0469C129.297 30.5938 129.18 31.0938 128.977 31.5469C128.773 31.9844 128.453 32.3359 128.016 32.6016C127.578 32.8672 126.961 33 126.164 33C125.352 33 124.727 32.8672 124.289 32.6016C123.852 32.3359 123.523 31.9844 123.305 31.5469C123.102 31.1094 122.977 30.6094 122.93 30.0469C122.898 29.4844 122.883 28.9062 122.883 28.3125V25.0312H113.508V28.3125C113.508 28.9062 113.484 29.4844 113.438 30.0469C113.406 30.6094 113.281 31.1094 113.062 31.5469C112.859 31.9844 112.539 32.3359 112.102 32.6016C111.664 32.8672 111.039 33 110.227 33C109.414 33 108.789 32.8672 108.352 32.6016C107.914 32.3359 107.594 31.9844 107.391 31.5469C107.188 31.0938 107.07 30.5938 107.039 30.0469C107.008 29.4844 106.992 28.9062 106.992 28.3125V27.6094C106.992 27.125 106.992 26.6094 106.992 26.0625C107.008 25.5156 107.023 24.9609 107.039 24.3984C107.055 23.8359 107.07 23.2812 107.086 22.7344C107.102 22.1719 107.117 21.6406 107.133 21.1406C107.914 18.4219 108.734 15.6719 109.594 12.8906C110.453 10.0938 111.273 7.32812 112.055 4.59375C112.211 4.01562 112.398 3.46094 112.617 2.92969C112.836 2.38281 113.125 1.91406 113.484 1.52344C113.844 1.11719 114.305 0.796875 114.867 0.5625C115.43 0.3125 116.148 0.1875 117.023 0.1875H119.367C120.227 0.1875 120.938 0.3125 121.5 0.5625C122.078 0.796875 122.547 1.11719 122.906 1.52344C123.266 1.91406 123.547 2.38281 123.75 2.92969C123.969 3.46094 124.164 4.01562 124.336 4.59375L129.211 21.1406ZM140.461 8.4375C140.477 9.09375 140.664 9.6875 141.023 10.2188C141.398 10.7344 141.883 11.2266 142.477 11.6953C143.086 12.1641 143.773 12.625 144.539 13.0781C145.305 13.5156 146.086 13.9844 146.883 14.4844C147.695 14.9688 148.484 15.5 149.25 16.0781C150.016 16.6562 150.703 17.3125 151.312 18.0469C151.922 18.7812 152.414 19.6094 152.789 20.5312C153.164 21.4531 153.367 22.5 153.398 23.6719V23.8594C153.398 25.1406 153.242 26.2578 152.93 27.2109C152.617 28.1641 152.203 28.9844 151.688 29.6719C151.172 30.3594 150.57 30.9297 149.883 31.3828C149.195 31.8203 148.469 32.1719 147.703 32.4375C146.953 32.7031 146.188 32.8906 145.406 33C144.641 33.1094 143.914 33.1719 143.227 33.1875H142.992C141.664 33.1875 140.5 33.0547 139.5 32.7891C138.5 32.5234 137.641 32.1719 136.922 31.7344C136.203 31.2812 135.602 30.7656 135.117 30.1875C134.648 29.6094 134.273 29.0156 133.992 28.4062C133.711 27.7812 133.508 27.1641 133.383 26.5547C133.258 25.9453 133.195 25.375 133.195 24.8438C133.195 24.2969 133.289 23.8203 133.477 23.4141C133.664 23.0078 133.906 22.6797 134.203 22.4297C134.516 22.1641 134.867 21.9688 135.258 21.8438C135.664 21.7188 136.086 21.6562 136.523 21.6562C136.93 21.6562 137.344 21.7188 137.766 21.8438C138.203 21.9688 138.594 22.1641 138.938 22.4297C139.297 22.6797 139.586 23.0078 139.805 23.4141C140.039 23.8047 140.164 24.2656 140.18 24.7969C140.211 25.9688 140.477 26.7734 140.977 27.2109C141.477 27.6328 142.195 27.8438 143.133 27.8438C143.602 27.8281 144.031 27.7734 144.422 27.6797C144.828 27.5703 145.172 27.3906 145.453 27.1406C145.734 26.875 145.953 26.5312 146.109 26.1094C146.281 25.6719 146.367 25.125 146.367 24.4688C146.367 23.6562 146.18 22.9219 145.805 22.2656C145.445 21.6094 144.969 21 144.375 20.4375C143.781 19.875 143.102 19.3438 142.336 18.8438C141.57 18.3281 140.789 17.8203 139.992 17.3203C139.195 16.8047 138.414 16.2734 137.648 15.7266C136.898 15.1641 136.219 14.5547 135.609 13.8984C135 13.2422 134.508 12.5156 134.133 11.7188C133.773 10.9219 133.586 10.0156 133.57 9V8.625C133.586 6.95312 133.805 5.5625 134.227 4.45312C134.664 3.34375 135.297 2.46094 136.125 1.80469C136.969 1.14844 138 0.6875 139.219 0.421875C140.438 0.140625 141.836 0 143.414 0H144.023C145.461 0 146.68 0.15625 147.68 0.46875C148.68 0.78125 149.508 1.17969 150.164 1.66406C150.836 2.14844 151.359 2.69531 151.734 3.30469C152.125 3.91406 152.414 4.51562 152.602 5.10938C152.789 5.70312 152.906 6.25781 152.953 6.77344C153 7.28906 153.023 7.70312 153.023 8.01562C153.023 8.48438 152.93 8.91406 152.742 9.30469C152.57 9.67969 152.328 10 152.016 10.2656C151.719 10.5312 151.359 10.7422 150.938 10.8984C150.531 11.0391 150.086 11.1094 149.602 11.1094C149.227 11.1094 148.852 11.0391 148.477 10.8984C148.102 10.7422 147.766 10.5469 147.469 10.3125C147.172 10.0781 146.93 9.8125 146.742 9.51562C146.555 9.20312 146.461 8.89062 146.461 8.57812C146.461 7.29688 146.227 6.40625 145.758 5.90625C145.305 5.40625 144.633 5.15625 143.742 5.15625C143.32 5.15625 142.906 5.17969 142.5 5.22656C142.109 5.27344 141.758 5.40625 141.445 5.625C141.148 5.82812 140.906 6.14844 140.719 6.58594C140.547 7.02344 140.461 7.64062 140.461 8.4375ZM176.039 9.46875C176.039 7.96875 176.258 6.69531 176.695 5.64844C177.133 4.58594 177.688 3.70312 178.359 3C179.047 2.29688 179.797 1.75 180.609 1.35938C181.438 0.953125 182.234 0.648438 183 0.445312C183.781 0.242188 184.484 0.117188 185.109 0.0703125C185.734 0.0234375 186.195 0 186.492 0H187.289C187.586 0 188.047 0.0234375 188.672 0.0703125C189.297 0.117188 189.992 0.242188 190.758 0.445312C191.523 0.648438 192.312 0.953125 193.125 1.35938C193.953 1.75 194.695 2.29688 195.352 3C196.023 3.70312 196.57 4.58594 196.992 5.64844C197.43 6.69531 197.648 7.96875 197.648 9.46875V23.4844C197.648 25.0312 197.43 26.3438 196.992 27.4219C196.57 28.5 196.023 29.3984 195.352 30.1172C194.695 30.8359 193.953 31.4062 193.125 31.8281C192.312 32.2344 191.523 32.5391 190.758 32.7422C189.992 32.9453 189.297 33.0703 188.672 33.1172C188.047 33.1641 187.586 33.1875 187.289 33.1875H186.492C186.195 33.1875 185.734 33.1641 185.109 33.1172C184.484 33.0703 183.781 32.9453 183 32.7422C182.234 32.5391 181.438 32.2344 180.609 31.8281C179.797 31.4062 179.047 30.8359 178.359 30.1172C177.688 29.3984 177.133 28.5 176.695 27.4219C176.258 26.3438 176.039 25.0312 176.039 23.4844V9.46875ZM183.82 24.375C183.852 24.9531 183.984 25.4609 184.219 25.8984C184.422 26.2891 184.727 26.6406 185.133 26.9531C185.555 27.2656 186.148 27.4219 186.914 27.4219C187.664 27.4219 188.242 27.2656 188.648 26.9531C189.055 26.6406 189.359 26.2891 189.562 25.8984C189.781 25.4609 189.914 24.9531 189.961 24.375V9.09375C189.914 8.53125 189.781 8.02344 189.562 7.57031C189.359 7.19531 189.055 6.85156 188.648 6.53906C188.242 6.21094 187.664 6.04688 186.914 6.04688C186.148 6.04688 185.555 6.21094 185.133 6.53906C184.727 6.85156 184.422 7.19531 184.219 7.57031C183.984 8.02344 183.852 8.53125 183.82 9.09375V24.375ZM221.508 23.2969H222.07V3.84375C222.07 3.34375 222.102 2.875 222.164 2.4375C222.227 1.98438 222.359 1.59375 222.562 1.26562C222.781 0.9375 223.094 0.679688 223.5 0.492188C223.922 0.289062 224.492 0.1875 225.211 0.1875C226.008 0.1875 226.633 0.289062 227.086 0.492188C227.555 0.679688 227.906 0.9375 228.141 1.26562C228.375 1.59375 228.523 1.98438 228.586 2.4375C228.648 2.875 228.68 3.34375 228.68 3.84375V27.6094C228.68 28.2969 228.656 28.9609 228.609 29.6016C228.578 30.2422 228.453 30.8203 228.234 31.3359C228.031 31.8359 227.688 32.2422 227.203 32.5547C226.734 32.8516 226.07 33 225.211 33H222.117C221.383 33 220.766 32.8594 220.266 32.5781C219.781 32.2812 219.375 31.9297 219.047 31.5234C218.719 31.1016 218.453 30.6641 218.25 30.2109C218.062 29.7578 217.914 29.375 217.805 29.0625L210.727 9.89062H210.164V29.3438C210.164 29.8438 210.133 30.3203 210.07 30.7734C210.008 31.2109 209.867 31.5938 209.648 31.9219C209.445 32.25 209.133 32.5156 208.711 32.7188C208.305 32.9062 207.742 33 207.023 33C206.211 33 205.57 32.9062 205.102 32.7188C204.633 32.5156 204.281 32.25 204.047 31.9219C203.812 31.5938 203.664 31.2109 203.602 30.7734C203.539 30.3203 203.508 29.8438 203.508 29.3438V5.57812C203.508 4.90625 203.523 4.25 203.555 3.60938C203.602 2.95312 203.734 2.375 203.953 1.875C204.172 1.35938 204.516 0.953125 204.984 0.65625C205.469 0.34375 206.148 0.1875 207.023 0.1875H210.117C210.898 0.1875 211.531 0.34375 212.016 0.65625C212.516 0.953125 212.922 1.28125 213.234 1.64062C213.578 2.0625 213.852 2.54688 214.055 3.09375L221.508 23.2969ZM236.086 5.57812C236.086 4.90625 236.117 4.25 236.18 3.60938C236.242 2.96875 236.391 2.39844 236.625 1.89844C236.875 1.38281 237.234 0.96875 237.703 0.65625C238.172 0.34375 238.82 0.1875 239.648 0.1875C240.539 0.1875 241.234 0.34375 241.734 0.65625C242.234 0.96875 242.602 1.38281 242.836 1.89844C243.07 2.39844 243.211 2.96875 243.258 3.60938C243.32 4.25 243.352 4.90625 243.352 5.57812V26.1094H247.945C248.586 26.1094 249.219 26.1406 249.844 26.2031C250.469 26.2656 251.023 26.4141 251.508 26.6484C252.008 26.8828 252.406 27.2266 252.703 27.6797C253 28.1328 253.148 28.75 253.148 29.5312C253.148 30.3281 253 30.9609 252.703 31.4297C252.406 31.8828 252.008 32.2266 251.508 32.4609C251.023 32.6953 250.469 32.8438 249.844 32.9062C249.219 32.9688 248.586 33 247.945 33H241.289C240.461 33 239.727 32.9688 239.086 32.9062C238.445 32.8438 237.898 32.6953 237.445 32.4609C237.008 32.2266 236.672 31.8828 236.438 31.4297C236.203 30.9609 236.086 30.3281 236.086 29.5312V5.57812ZM269.93 27.7031C269.93 28.3594 269.898 29.0078 269.836 29.6484C269.773 30.2734 269.625 30.8359 269.391 31.3359C269.156 31.8359 268.805 32.2422 268.336 32.5547C267.867 32.8516 267.227 33 266.414 33C265.586 33 264.938 32.8516 264.469 32.5547C264 32.2422 263.641 31.8359 263.391 31.3359C263.156 30.8359 263.008 30.2734 262.945 29.6484C262.883 29.0078 262.852 28.3594 262.852 27.7031V19.5469L255.867 7.07812C255.492 6.42188 255.133 5.78125 254.789 5.15625C254.445 4.51562 254.273 3.875 254.273 3.23438C254.273 2.8125 254.391 2.39062 254.625 1.96875C254.875 1.53125 255.32 1.125 255.961 0.75C256.664 0.375 257.32 0.1875 257.93 0.1875C258.398 0.1875 258.82 0.296875 259.195 0.515625C259.586 0.71875 259.938 0.992188 260.25 1.33594C260.562 1.67969 260.844 2.07031 261.094 2.50781C261.344 2.92969 261.57 3.35938 261.773 3.79688L266.039 12.75H266.789L271.055 3.79688C271.258 3.35938 271.484 2.92969 271.734 2.50781C271.984 2.07031 272.266 1.67969 272.578 1.33594C272.891 0.992188 273.234 0.71875 273.609 0.515625C274 0.296875 274.43 0.1875 274.898 0.1875C275.227 0.1875 275.547 0.234375 275.859 0.328125C276.172 0.421875 276.508 0.5625 276.867 0.75C277.477 1.125 277.906 1.53125 278.156 1.96875C278.422 2.39062 278.555 2.8125 278.555 3.23438C278.555 3.51562 278.43 3.97656 278.18 4.61719C277.93 5.24219 277.523 6.0625 276.961 7.07812L269.93 19.5469V27.7031ZM310.242 0.1875C311.664 0.1875 312.984 0.367188 314.203 0.726562C315.438 1.08594 316.508 1.625 317.414 2.34375C318.336 3.04688 319.055 3.92969 319.57 4.99219C320.102 6.05469 320.367 7.29688 320.367 8.71875V23.25C320.367 24.4688 320.234 25.5469 319.969 26.4844C319.703 27.4062 319.352 28.2109 318.914 28.8984C318.492 29.5703 318.008 30.1484 317.461 30.6328C316.914 31.1016 316.359 31.4844 315.797 31.7812C314.453 32.5 312.93 32.9062 311.227 33H303.445C302.555 33 301.867 32.8516 301.383 32.5547C300.898 32.2422 300.547 31.8359 300.328 31.3359C300.109 30.8203 299.977 30.2422 299.93 29.6016C299.898 28.9609 299.883 28.2969 299.883 27.6094V5.53125C299.883 4.85938 299.898 4.20312 299.93 3.5625C299.977 2.92188 300.109 2.35156 300.328 1.85156C300.547 1.35156 300.898 0.953125 301.383 0.65625C301.867 0.34375 302.555 0.1875 303.445 0.1875H310.242ZM307.008 5.67188V27.4219H310.055C310.727 27.3906 311.328 27.2344 311.859 26.9531C312.078 26.8438 312.297 26.6953 312.516 26.5078C312.734 26.3203 312.93 26.1016 313.102 25.8516C313.273 25.5859 313.406 25.2734 313.5 24.9141C313.609 24.5547 313.664 24.1406 313.664 23.6719V9.84375C313.664 9.32812 313.609 8.875 313.5 8.48438C313.406 8.07812 313.273 7.72656 313.102 7.42969C312.93 7.13281 312.734 6.88281 312.516 6.67969C312.297 6.47656 312.078 6.3125 311.859 6.1875C311.328 5.89062 310.727 5.71875 310.055 5.67188H307.008ZM324.82 9.46875C324.82 7.96875 325.039 6.69531 325.477 5.64844C325.914 4.58594 326.469 3.70312 327.141 3C327.828 2.29688 328.578 1.75 329.391 1.35938C330.219 0.953125 331.016 0.648438 331.781 0.445312C332.562 0.242188 333.266 0.117188 333.891 0.0703125C334.516 0.0234375 334.977 0 335.273 0H336.07C336.367 0 336.828 0.0234375 337.453 0.0703125C338.078 0.117188 338.773 0.242188 339.539 0.445312C340.305 0.648438 341.094 0.953125 341.906 1.35938C342.734 1.75 343.477 2.29688 344.133 3C344.805 3.70312 345.352 4.58594 345.773 5.64844C346.211 6.69531 346.43 7.96875 346.43 9.46875V23.4844C346.43 25.0312 346.211 26.3438 345.773 27.4219C345.352 28.5 344.805 29.3984 344.133 30.1172C343.477 30.8359 342.734 31.4062 341.906 31.8281C341.094 32.2344 340.305 32.5391 339.539 32.7422C338.773 32.9453 338.078 33.0703 337.453 33.1172C336.828 33.1641 336.367 33.1875 336.07 33.1875H335.273C334.977 33.1875 334.516 33.1641 333.891 33.1172C333.266 33.0703 332.562 32.9453 331.781 32.7422C331.016 32.5391 330.219 32.2344 329.391 31.8281C328.578 31.4062 327.828 30.8359 327.141 30.1172C326.469 29.3984 325.914 28.5 325.477 27.4219C325.039 26.3438 324.82 25.0312 324.82 23.4844V9.46875ZM332.602 24.375C332.633 24.9531 332.766 25.4609 333 25.8984C333.203 26.2891 333.508 26.6406 333.914 26.9531C334.336 27.2656 334.93 27.4219 335.695 27.4219C336.445 27.4219 337.023 27.2656 337.43 26.9531C337.836 26.6406 338.141 26.2891 338.344 25.8984C338.562 25.4609 338.695 24.9531 338.742 24.375V9.09375C338.695 8.53125 338.562 8.02344 338.344 7.57031C338.141 7.19531 337.836 6.85156 337.43 6.53906C337.023 6.21094 336.445 6.04688 335.695 6.04688C334.93 6.04688 334.336 6.21094 333.914 6.53906C333.508 6.85156 333.203 7.19531 333 7.57031C332.766 8.02344 332.633 8.53125 332.602 9.09375V24.375ZM352.758 5.57812C352.758 4.90625 352.789 4.25 352.852 3.60938C352.93 2.96875 353.094 2.39844 353.344 1.89844C353.609 1.38281 354 0.96875 354.516 0.65625C355.031 0.34375 355.742 0.1875 356.648 0.1875C357.555 0.1875 358.266 0.34375 358.781 0.65625C359.297 0.96875 359.68 1.38281 359.93 1.89844C360.195 2.39844 360.359 2.96875 360.422 3.60938C360.5 4.25 360.539 4.90625 360.539 5.57812V27.6094C360.539 28.2969 360.508 28.9609 360.445 29.6016C360.383 30.2422 360.219 30.8203 359.953 31.3359C359.703 31.8359 359.312 32.2422 358.781 32.5547C358.266 32.8516 357.555 33 356.648 33C355.742 33 355.031 32.8516 354.516 32.5547C354 32.2422 353.609 31.8359 353.344 31.3359C353.094 30.8203 352.93 30.2422 352.852 29.6016C352.789 28.9609 352.758 28.2969 352.758 27.6094V5.57812ZM385.898 23.2969H386.461V3.84375C386.461 3.34375 386.492 2.875 386.555 2.4375C386.617 1.98438 386.75 1.59375 386.953 1.26562C387.172 0.9375 387.484 0.679688 387.891 0.492188C388.312 0.289062 388.883 0.1875 389.602 0.1875C390.398 0.1875 391.023 0.289062 391.477 0.492188C391.945 0.679688 392.297 0.9375 392.531 1.26562C392.766 1.59375 392.914 1.98438 392.977 2.4375C393.039 2.875 393.07 3.34375 393.07 3.84375V27.6094C393.07 28.2969 393.047 28.9609 393 29.6016C392.969 30.2422 392.844 30.8203 392.625 31.3359C392.422 31.8359 392.078 32.2422 391.594 32.5547C391.125 32.8516 390.461 33 389.602 33H386.508C385.773 33 385.156 32.8594 384.656 32.5781C384.172 32.2812 383.766 31.9297 383.438 31.5234C383.109 31.1016 382.844 30.6641 382.641 30.2109C382.453 29.7578 382.305 29.375 382.195 29.0625L375.117 9.89062H374.555V29.3438C374.555 29.8438 374.523 30.3203 374.461 30.7734C374.398 31.2109 374.258 31.5938 374.039 31.9219C373.836 32.25 373.523 32.5156 373.102 32.7188C372.695 32.9062 372.133 33 371.414 33C370.602 33 369.961 32.9062 369.492 32.7188C369.023 32.5156 368.672 32.25 368.438 31.9219C368.203 31.5938 368.055 31.2109 367.992 30.7734C367.93 30.3203 367.898 29.8438 367.898 29.3438V5.57812C367.898 4.90625 367.914 4.25 367.945 3.60938C367.992 2.95312 368.125 2.375 368.344 1.875C368.562 1.35938 368.906 0.953125 369.375 0.65625C369.859 0.34375 370.539 0.1875 371.414 0.1875H374.508C375.289 0.1875 375.922 0.34375 376.406 0.65625C376.906 0.953125 377.312 1.28125 377.625 1.64062C377.969 2.0625 378.242 2.54688 378.445 3.09375L385.898 23.2969ZM421.43 30.8438C421.43 31.0469 421.406 31.2812 421.359 31.5469C421.328 31.8125 421.227 32.0703 421.055 32.3203C420.898 32.5547 420.664 32.7578 420.352 32.9297C420.039 33.1016 419.617 33.1875 419.086 33.1875C418.492 33.1875 418.023 33.1094 417.68 32.9531C417.336 32.7812 417.07 32.5781 416.883 32.3438C416.711 32.0938 416.594 31.8359 416.531 31.5703C416.484 31.3047 416.461 31.0625 416.461 30.8438V29.4375C415.711 30.5469 414.75 31.4531 413.578 32.1562C412.422 32.8438 410.992 33.1875 409.289 33.1875C408.992 33.1875 408.531 33.1641 407.906 33.1172C407.281 33.0703 406.578 32.9453 405.797 32.7422C405.016 32.5391 404.211 32.2344 403.383 31.8281C402.555 31.4219 401.797 30.8594 401.109 30.1406C400.438 29.4062 399.883 28.5 399.445 27.4219C399.008 26.3281 398.789 25 398.789 23.4375V10.3125C398.789 9.03125 398.945 7.89844 399.258 6.91406C399.57 5.92969 399.977 5.07812 400.477 4.35938C400.992 3.625 401.578 3.01562 402.234 2.53125C402.891 2.03125 403.562 1.61719 404.25 1.28906C405.844 0.539062 407.664 0.109375 409.711 0C411.445 0 412.93 0.195312 414.164 0.585938C415.398 0.976562 416.445 1.48438 417.305 2.10938C418.164 2.73438 418.852 3.44531 419.367 4.24219C419.883 5.02344 420.281 5.82031 420.562 6.63281C420.844 7.44531 421.023 8.22656 421.102 8.97656C421.195 9.72656 421.242 10.375 421.242 10.9219C421.242 11.1562 421.219 11.4453 421.172 11.7891C421.141 12.1172 421.008 12.4375 420.773 12.75C420.539 13.0469 420.164 13.3047 419.648 13.5234C419.148 13.7266 418.43 13.8281 417.492 13.8281C417.164 13.8281 416.758 13.8125 416.273 13.7812C415.805 13.7344 415.352 13.6328 414.914 13.4766C414.477 13.3203 414.102 13.0938 413.789 12.7969C413.477 12.4844 413.32 12.0625 413.32 11.5312C413.32 10.6875 413.266 9.9375 413.156 9.28125C413.062 8.60938 412.883 8.03906 412.617 7.57031C412.352 7.10156 411.984 6.75 411.516 6.51562C411.047 6.26562 410.445 6.14062 409.711 6.14062C408.945 6.14062 408.352 6.29688 407.93 6.60938C407.523 6.92188 407.227 7.26562 407.039 7.64062C406.82 8.07812 406.695 8.57812 406.664 9.14062V24.1406C406.664 24.6406 406.75 25.1094 406.922 25.5469C407.109 25.9844 407.367 26.3672 407.695 26.6953C408.023 27.0234 408.406 27.2812 408.844 27.4688C409.297 27.6562 409.789 27.75 410.32 27.75C410.945 27.75 411.508 27.6172 412.008 27.3516C412.523 27.0703 412.984 26.7031 413.391 26.25C413.797 25.7812 414.156 25.2578 414.469 24.6797C414.797 24.0859 415.086 23.4688 415.336 22.8281H413.086C412.633 22.7812 412.234 22.6641 411.891 22.4766C411.578 22.3203 411.297 22.0859 411.047 21.7734C410.812 21.4609 410.695 21.0312 410.695 20.4844C410.695 19.8906 410.812 19.4375 411.047 19.125C411.297 18.7969 411.578 18.5547 411.891 18.3984C412.234 18.2266 412.633 18.125 413.086 18.0938H419.18C419.289 18.0938 419.461 18.1172 419.695 18.1641C419.945 18.1953 420.195 18.3047 420.445 18.4922C420.711 18.6797 420.938 18.9609 421.125 19.3359C421.328 19.6953 421.43 20.2031 421.43 20.8594V30.8438ZM445.523 5.57812C445.523 4.90625 445.555 4.25 445.617 3.60938C445.68 2.96875 445.828 2.39844 446.062 1.89844C446.312 1.38281 446.672 0.96875 447.141 0.65625C447.609 0.34375 448.258 0.1875 449.086 0.1875C449.898 0.1875 450.539 0.34375 451.008 0.65625C451.492 0.96875 451.852 1.38281 452.086 1.89844C452.336 2.39844 452.492 2.96875 452.555 3.60938C452.617 4.25 452.648 4.90625 452.648 5.57812V12.9375H459.07V5.57812C459.07 4.90625 459.102 4.25 459.164 3.60938C459.227 2.96875 459.375 2.39844 459.609 1.89844C459.859 1.38281 460.219 0.96875 460.688 0.65625C461.156 0.34375 461.805 0.1875 462.633 0.1875C463.445 0.1875 464.086 0.34375 464.555 0.65625C465.039 0.96875 465.398 1.38281 465.633 1.89844C465.883 2.39844 466.039 2.96875 466.102 3.60938C466.164 4.25 466.195 4.90625 466.195 5.57812V27.6094C466.195 28.2969 466.164 28.9609 466.102 29.6016C466.039 30.2422 465.883 30.8203 465.633 31.3359C465.398 31.8359 465.039 32.2422 464.555 32.5547C464.086 32.8516 463.445 33 462.633 33C461.805 33 461.156 32.8516 460.688 32.5547C460.219 32.2422 459.859 31.8359 459.609 31.3359C459.375 30.8203 459.227 30.2422 459.164 29.6016C459.102 28.9609 459.07 28.2969 459.07 27.6094V19.8281H452.648V27.6094C452.648 28.2969 452.617 28.9609 452.555 29.6016C452.492 30.2422 452.336 30.8203 452.086 31.3359C451.852 31.8359 451.492 32.2422 451.008 32.5547C450.539 32.8516 449.898 33 449.086 33C448.258 33 447.609 32.8516 447.141 32.5547C446.672 32.2422 446.312 31.8359 446.062 31.3359C445.828 30.8203 445.68 30.2422 445.617 29.6016C445.555 28.9609 445.523 28.2969 445.523 27.6094V5.57812ZM473.367 5.57812C473.367 4.90625 473.398 4.25 473.461 3.60938C473.539 2.96875 473.703 2.39844 473.953 1.89844C474.219 1.38281 474.609 0.96875 475.125 0.65625C475.641 0.34375 476.352 0.1875 477.258 0.1875C478.164 0.1875 478.875 0.34375 479.391 0.65625C479.906 0.96875 480.289 1.38281 480.539 1.89844C480.805 2.39844 480.969 2.96875 481.031 3.60938C481.109 4.25 481.148 4.90625 481.148 5.57812V27.6094C481.148 28.2969 481.117 28.9609 481.055 29.6016C480.992 30.2422 480.828 30.8203 480.562 31.3359C480.312 31.8359 479.922 32.2422 479.391 32.5547C478.875 32.8516 478.164 33 477.258 33C476.352 33 475.641 32.8516 475.125 32.5547C474.609 32.2422 474.219 31.8359 473.953 31.3359C473.703 30.8203 473.539 30.2422 473.461 29.6016C473.398 28.9609 473.367 28.2969 473.367 27.6094V5.57812ZM494.367 8.4375C494.383 9.09375 494.57 9.6875 494.93 10.2188C495.305 10.7344 495.789 11.2266 496.383 11.6953C496.992 12.1641 497.68 12.625 498.445 13.0781C499.211 13.5156 499.992 13.9844 500.789 14.4844C501.602 14.9688 502.391 15.5 503.156 16.0781C503.922 16.6562 504.609 17.3125 505.219 18.0469C505.828 18.7812 506.32 19.6094 506.695 20.5312C507.07 21.4531 507.273 22.5 507.305 23.6719V23.8594C507.305 25.1406 507.148 26.2578 506.836 27.2109C506.523 28.1641 506.109 28.9844 505.594 29.6719C505.078 30.3594 504.477 30.9297 503.789 31.3828C503.102 31.8203 502.375 32.1719 501.609 32.4375C500.859 32.7031 500.094 32.8906 499.312 33C498.547 33.1094 497.82 33.1719 497.133 33.1875H496.898C495.57 33.1875 494.406 33.0547 493.406 32.7891C492.406 32.5234 491.547 32.1719 490.828 31.7344C490.109 31.2812 489.508 30.7656 489.023 30.1875C488.555 29.6094 488.18 29.0156 487.898 28.4062C487.617 27.7812 487.414 27.1641 487.289 26.5547C487.164 25.9453 487.102 25.375 487.102 24.8438C487.102 24.2969 487.195 23.8203 487.383 23.4141C487.57 23.0078 487.812 22.6797 488.109 22.4297C488.422 22.1641 488.773 21.9688 489.164 21.8438C489.57 21.7188 489.992 21.6562 490.43 21.6562C490.836 21.6562 491.25 21.7188 491.672 21.8438C492.109 21.9688 492.5 22.1641 492.844 22.4297C493.203 22.6797 493.492 23.0078 493.711 23.4141C493.945 23.8047 494.07 24.2656 494.086 24.7969C494.117 25.9688 494.383 26.7734 494.883 27.2109C495.383 27.6328 496.102 27.8438 497.039 27.8438C497.508 27.8281 497.938 27.7734 498.328 27.6797C498.734 27.5703 499.078 27.3906 499.359 27.1406C499.641 26.875 499.859 26.5312 500.016 26.1094C500.188 25.6719 500.273 25.125 500.273 24.4688C500.273 23.6562 500.086 22.9219 499.711 22.2656C499.352 21.6094 498.875 21 498.281 20.4375C497.688 19.875 497.008 19.3438 496.242 18.8438C495.477 18.3281 494.695 17.8203 493.898 17.3203C493.102 16.8047 492.32 16.2734 491.555 15.7266C490.805 15.1641 490.125 14.5547 489.516 13.8984C488.906 13.2422 488.414 12.5156 488.039 11.7188C487.68 10.9219 487.492 10.0156 487.477 9V8.625C487.492 6.95312 487.711 5.5625 488.133 4.45312C488.57 3.34375 489.203 2.46094 490.031 1.80469C490.875 1.14844 491.906 0.6875 493.125 0.421875C494.344 0.140625 495.742 0 497.32 0H497.93C499.367 0 500.586 0.15625 501.586 0.46875C502.586 0.78125 503.414 1.17969 504.07 1.66406C504.742 2.14844 505.266 2.69531 505.641 3.30469C506.031 3.91406 506.32 4.51562 506.508 5.10938C506.695 5.70312 506.812 6.25781 506.859 6.77344C506.906 7.28906 506.93 7.70312 506.93 8.01562C506.93 8.48438 506.836 8.91406 506.648 9.30469C506.477 9.67969 506.234 10 505.922 10.2656C505.625 10.5312 505.266 10.7422 504.844 10.8984C504.438 11.0391 503.992 11.1094 503.508 11.1094C503.133 11.1094 502.758 11.0391 502.383 10.8984C502.008 10.7422 501.672 10.5469 501.375 10.3125C501.078 10.0781 500.836 9.8125 500.648 9.51562C500.461 9.20312 500.367 8.89062 500.367 8.57812C500.367 7.29688 500.133 6.40625 499.664 5.90625C499.211 5.40625 498.539 5.15625 497.648 5.15625C497.227 5.15625 496.812 5.17969 496.406 5.22656C496.016 5.27344 495.664 5.40625 495.352 5.625C495.055 5.82812 494.812 6.14844 494.625 6.58594C494.453 7.02344 494.367 7.64062 494.367 8.4375ZM541.008 0.1875C542.43 0.1875 543.75 0.367188 544.969 0.726562C546.203 1.08594 547.273 1.625 548.18 2.34375C549.102 3.04688 549.82 3.92969 550.336 4.99219C550.867 6.05469 551.133 7.29688 551.133 8.71875V23.25C551.133 24.4688 551 25.5469 550.734 26.4844C550.469 27.4062 550.117 28.2109 549.68 28.8984C549.258 29.5703 548.773 30.1484 548.227 30.6328C547.68 31.1016 547.125 31.4844 546.562 31.7812C545.219 32.5 543.695 32.9062 541.992 33H534.211C533.32 33 532.633 32.8516 532.148 32.5547C531.664 32.2422 531.312 31.8359 531.094 31.3359C530.875 30.8203 530.742 30.2422 530.695 29.6016C530.664 28.9609 530.648 28.2969 530.648 27.6094V5.53125C530.648 4.85938 530.664 4.20312 530.695 3.5625C530.742 2.92188 530.875 2.35156 531.094 1.85156C531.312 1.35156 531.664 0.953125 532.148 0.65625C532.633 0.34375 533.32 0.1875 534.211 0.1875H541.008ZM537.773 5.67188V27.4219H540.82C541.492 27.3906 542.094 27.2344 542.625 26.9531C542.844 26.8438 543.062 26.6953 543.281 26.5078C543.5 26.3203 543.695 26.1016 543.867 25.8516C544.039 25.5859 544.172 25.2734 544.266 24.9141C544.375 24.5547 544.43 24.1406 544.43 23.6719V9.84375C544.43 9.32812 544.375 8.875 544.266 8.48438C544.172 8.07812 544.039 7.72656 543.867 7.42969C543.695 7.13281 543.5 6.88281 543.281 6.67969C543.062 6.47656 542.844 6.3125 542.625 6.1875C542.094 5.89062 541.492 5.71875 540.82 5.67188H537.773ZM556.477 5.53125C556.477 4.85938 556.508 4.20312 556.57 3.5625C556.648 2.92188 556.812 2.35156 557.062 1.85156C557.328 1.35156 557.719 0.953125 558.234 0.65625C558.75 0.34375 559.461 0.1875 560.367 0.1875C561.273 0.1875 561.984 0.34375 562.5 0.65625C563.031 0.953125 563.422 1.35156 563.672 1.85156C563.938 2.35156 564.102 2.92188 564.164 3.5625C564.227 4.20312 564.258 4.85938 564.258 5.53125V24C564.305 24.6875 564.445 25.2969 564.68 25.8281C564.773 26.0625 564.898 26.2891 565.055 26.5078C565.211 26.7266 565.391 26.9219 565.594 27.0938C565.812 27.2656 566.062 27.4062 566.344 27.5156C566.641 27.6094 566.977 27.6562 567.352 27.6562C567.727 27.6562 568.062 27.6094 568.359 27.5156C568.656 27.4062 568.906 27.2656 569.109 27.0938C569.328 26.9219 569.516 26.7266 569.672 26.5078C569.828 26.2891 569.953 26.0625 570.047 25.8281C570.281 25.2969 570.414 24.6875 570.445 24V5.53125C570.445 4.85938 570.477 4.20312 570.539 3.5625C570.602 2.92188 570.758 2.35156 571.008 1.85156C571.273 1.35156 571.664 0.953125 572.18 0.65625C572.695 0.34375 573.414 0.1875 574.336 0.1875C575.242 0.1875 575.953 0.34375 576.469 0.65625C576.984 0.953125 577.367 1.35156 577.617 1.85156C577.883 2.35156 578.047 2.92188 578.109 3.5625C578.188 4.20312 578.227 4.85938 578.227 5.53125V23.3906C578.227 25.0156 577.961 26.4375 577.43 27.6562C576.914 28.875 576.172 29.8984 575.203 30.7266C574.25 31.5391 573.102 32.1562 571.758 32.5781C570.43 32.9844 568.961 33.1875 567.352 33.1875C565.727 33.1875 564.25 32.9766 562.922 32.5547C561.594 32.1172 560.445 31.4844 559.477 30.6562C558.523 29.8281 557.781 28.8047 557.25 27.5859C556.734 26.3672 556.477 24.9688 556.477 23.3906V5.53125ZM598.945 0.1875C599.57 0.1875 600.195 0.210938 600.82 0.257812C601.461 0.304688 602.039 0.4375 602.555 0.65625C603.07 0.875 603.484 1.21094 603.797 1.66406C604.125 2.10156 604.289 2.71875 604.289 3.51562C604.289 4.29688 604.125 4.91406 603.797 5.36719C603.484 5.80469 603.07 6.13281 602.555 6.35156C602.039 6.57031 601.461 6.71094 600.82 6.77344C600.195 6.82031 599.57 6.84375 598.945 6.84375H596.555V27.6562C596.555 28.3281 596.531 28.9844 596.484 29.625C596.453 30.2656 596.328 30.8359 596.109 31.3359C595.891 31.8359 595.539 32.2422 595.055 32.5547C594.57 32.8516 593.883 33 592.992 33C592.102 33 591.414 32.8516 590.93 32.5547C590.445 32.2422 590.094 31.8359 589.875 31.3359C589.656 30.8359 589.523 30.2656 589.477 29.625C589.445 28.9844 589.43 28.3281 589.43 27.6562V6.84375H587.039C586.414 6.84375 585.781 6.82031 585.141 6.77344C584.516 6.71094 583.945 6.57031 583.43 6.35156C582.914 6.13281 582.492 5.80469 582.164 5.36719C581.852 4.91406 581.695 4.29688 581.695 3.51562C581.695 2.71875 581.852 2.10156 582.164 1.66406C582.492 1.21094 582.914 0.875 583.43 0.65625C583.945 0.4375 584.516 0.304688 585.141 0.257812C585.781 0.210938 586.414 0.1875 587.039 0.1875H598.945ZM619.805 27.7031C619.805 28.3594 619.773 29.0078 619.711 29.6484C619.648 30.2734 619.5 30.8359 619.266 31.3359C619.031 31.8359 618.68 32.2422 618.211 32.5547C617.742 32.8516 617.102 33 616.289 33C615.461 33 614.812 32.8516 614.344 32.5547C613.875 32.2422 613.516 31.8359 613.266 31.3359C613.031 30.8359 612.883 30.2734 612.82 29.6484C612.758 29.0078 612.727 28.3594 612.727 27.7031V19.5469L605.742 7.07812C605.367 6.42188 605.008 5.78125 604.664 5.15625C604.32 4.51562 604.148 3.875 604.148 3.23438C604.148 2.8125 604.266 2.39062 604.5 1.96875C604.75 1.53125 605.195 1.125 605.836 0.75C606.539 0.375 607.195 0.1875 607.805 0.1875C608.273 0.1875 608.695 0.296875 609.07 0.515625C609.461 0.71875 609.812 0.992188 610.125 1.33594C610.438 1.67969 610.719 2.07031 610.969 2.50781C611.219 2.92969 611.445 3.35938 611.648 3.79688L615.914 12.75H616.664L620.93 3.79688C621.133 3.35938 621.359 2.92969 621.609 2.50781C621.859 2.07031 622.141 1.67969 622.453 1.33594C622.766 0.992188 623.109 0.71875 623.484 0.515625C623.875 0.296875 624.305 0.1875 624.773 0.1875C625.102 0.1875 625.422 0.234375 625.734 0.328125C626.047 0.421875 626.383 0.5625 626.742 0.75C627.352 1.125 627.781 1.53125 628.031 1.96875C628.297 2.39062 628.43 2.8125 628.43 3.23438C628.43 3.51562 628.305 3.97656 628.055 4.61719C627.805 5.24219 627.398 6.0625 626.836 7.07812L619.805 19.5469V27.7031ZM638.789 29.1094C638.789 30.4375 638.453 31.4219 637.781 32.0625C637.109 32.6875 636.164 33 634.945 33C633.695 33 632.734 32.6875 632.062 32.0625C631.391 31.4219 631.055 30.4375 631.055 29.1094C631.055 27.7656 631.391 26.7891 632.062 26.1797C632.734 25.5703 633.695 25.2656 634.945 25.2656C636.242 25.2656 637.203 25.5703 637.828 26.1797C638.469 26.7891 638.789 27.7656 638.789 29.1094Z" fill="black"/>
</svg>
