<svg width="609" height="97" viewBox="0 0 609 97" fill="none" xmlns="http://www.w3.org/2000/svg">
<path d="M48.225 55.75C48.3917 57.5 48.5167 59.0833 48.6 60.5C48.7667 61.9167 48.5167 63.3333 47.85 64.75C46.6 67.75 44.725 70.375 42.225 72.625C39.725 74.875 36.8917 76.8333 33.725 78.5C33.5583 79.0833 33.3917 79.6667 33.225 80.25C33.0583 80.8333 33.0167 81.25 33.1 81.5C32.1833 82.25 31.5167 83.0833 31.1 84C30.6833 84.9167 30.3917 85.8333 30.225 86.75C30.0583 87.6667 29.9333 88.5833 29.85 89.5C29.7667 90.4167 29.5583 91.25 29.225 92C28.5583 92.3333 27.9333 92.75 27.35 93.25C26.7667 93.75 26.1833 94.25 25.6 94.75C25.1 95.25 24.5167 95.7083 23.85 96.125C23.1833 96.5417 22.3917 96.8333 21.475 97C19.8083 96.4167 18.475 95.7917 17.475 95.125C16.5583 94.5417 15.4333 93.9167 14.1 93.25C13.1833 92 12.6417 90.625 12.475 89.125C12.3917 87.625 12.5167 86.1667 12.85 84.75C12.1 84.6667 11.35 84.625 10.6 84.625C9.85001 84.5417 9.14167 84.5417 8.47501 84.625C7.97501 84.2083 7.47501 83.75 6.97501 83.25C6.55834 82.75 6.26667 82.1667 6.10001 81.5C5.76667 81.5 5.60001 81.3333 5.60001 81C5.60001 80.6667 5.43334 80.4583 5.10001 80.375C5.60001 79.7083 5.80834 79.3333 5.72501 79.25C5.72501 79.1667 5.64167 79.0833 5.47501 79C5.30834 78.9167 5.14167 78.8333 4.97501 78.75C4.80834 78.5833 4.76667 78.375 4.85001 78.125C5.18334 77.625 5.30834 77 5.22501 76.25C5.14167 75.5 5.05834 74.75 4.97501 74C4.89167 73.1667 4.93334 72.4167 5.10001 71.75C5.26667 71 5.80834 70.4167 6.72501 70C9.39167 70.25 11.8917 70.1667 14.225 69.75C16.5583 69.25 18.7667 68.5833 20.85 67.75C23.0167 66.9167 25.0583 66 26.975 65C28.8917 64 30.7667 63.125 32.6 62.375C33.0167 61.125 33.725 60.2083 34.725 59.625C35.8083 58.9583 36.5583 58 36.975 56.75C37.0583 56.25 36.8917 55.9583 36.475 55.875C36.1417 55.7917 35.975 55.5417 35.975 55.125C33.725 54.125 31.6417 53.375 29.725 52.875C27.8083 52.2917 26.225 51.6667 24.975 51C24.1417 51.4167 23.35 51.5417 22.6 51.375C21.9333 51.125 21.0167 50.9167 19.85 50.75C17.1833 50.5833 14.6417 50.3333 12.225 50C9.80834 49.6667 7.43334 49.0417 5.10001 48.125C4.93334 47.7083 4.76667 47.375 4.60001 47.125C4.43334 46.875 4.01667 46.7917 3.35001 46.875C2.93334 46.2917 2.47501 45.75 1.97501 45.25C1.47501 44.75 1.01667 44.1667 0.600006 43.5C0.766673 42.6667 0.891673 41.9583 0.975006 41.375C1.05834 40.7917 0.850006 40.2083 0.350006 39.625C0.600006 38.7083 0.808339 37.9583 0.975006 37.375C1.14167 36.7917 1.14167 36.0417 0.975006 35.125C1.55834 33.625 2.43334 32.3333 3.60001 31.25C4.76667 30.1667 6.05834 29.25 7.47501 28.5C8.97501 27.75 10.475 27.1667 11.975 26.75C13.5583 26.25 15.0167 25.7917 16.35 25.375C18.5167 24.375 20.85 23.5 23.35 22.75C25.9333 22 28.5583 21.25 31.225 20.5C31.8083 18.5 32.3917 16.4167 32.975 14.25C33.6417 12 34.3917 9.91667 35.225 8C36.0583 6 37.0167 4.29167 38.1 2.875C39.1833 1.45833 40.5167 0.541667 42.1 0.125C44.2667 2.54167 45.8917 5.08333 46.975 7.75C48.0583 10.4167 48.9333 13.5833 49.6 17.25C51.35 17.25 53.1417 17.375 54.975 17.625C56.8083 17.7917 58.6833 18.1667 60.6 18.75C60.85 19.4167 61.1833 20.0833 61.6 20.75C62.1 21.3333 62.6 21.9583 63.1 22.625C63.6 23.2083 64.0167 23.8333 64.35 24.5C64.7667 25.0833 65.0167 25.7083 65.1 26.375C65.85 27.0417 66.4333 27.75 66.85 28.5C67.35 29.1667 67.475 30.125 67.225 31.375C66.475 31.875 65.725 32.375 64.975 32.875C64.225 33.375 63.4333 33.8333 62.6 34.25C59.6833 33.5833 56.7667 33.3333 53.85 33.5C51.0167 33.6667 48.3917 33.8333 45.975 34C45.225 33.3333 44.35 33.0417 43.35 33.125C42.4333 33.125 41.4333 33.25 40.35 33.5C39.35 33.75 38.3083 34.0417 37.225 34.375C36.225 34.625 35.2667 34.6667 34.35 34.5C33.6 35.0833 32.6417 35.5 31.475 35.75C30.3917 35.9167 29.225 36.0417 27.975 36.125C27.8917 36.5417 27.9333 36.7917 28.1 36.875C28.35 36.9583 28.3917 37.2083 28.225 37.625C28.6417 38.125 29.225 38.5 29.975 38.75C30.8083 38.9167 31.6 39.0833 32.35 39.25C33.1833 39.4167 33.8917 39.6667 34.475 40C35.1417 40.3333 35.6 40.875 35.85 41.625C36.9333 41.625 37.8917 41.875 38.725 42.375C39.6417 42.875 40.35 43.5 40.85 44.25C41.4333 44.9167 41.85 45.6667 42.1 46.5C42.4333 47.3333 42.5583 48.0417 42.475 48.625C42.725 49.2083 42.975 49.4583 43.225 49.375C43.5583 49.2083 43.9333 49.3333 44.35 49.75C44.6 50.6667 45.1833 51.625 46.1 52.625C47.0167 53.5417 47.725 54.5833 48.225 55.75ZM73.808 82.352C73.8933 81.9253 73.9787 81.5413 74.064 81.2C74.064 80.7733 74.1067 80.3467 74.192 79.92C74.192 79.4933 74.2347 79.0667 74.32 78.64C74.4053 78.2133 74.4907 77.7867 74.576 77.36C74.7467 76.9333 74.96 76.5493 75.216 76.208C75.3867 75.8667 75.6 75.5253 75.856 75.184C76.1973 74.8427 76.496 74.5013 76.752 74.16C77.0933 73.904 77.4347 73.648 77.776 73.392C78.1173 73.136 78.4587 72.88 78.8 72.624C79.1413 72.4533 79.5253 72.2827 79.952 72.112C82.0853 71.1733 84.2613 70.2347 86.48 69.296C86.8213 69.2107 87.1627 69.0827 87.504 68.912C88.272 68.4853 89.04 68.0587 89.808 67.632C90.1493 67.376 90.5333 67.12 90.96 66.864C91.3013 66.6933 91.6853 66.5653 92.112 66.48C92.5387 66.3947 92.9653 66.352 93.392 66.352C93.8187 66.5227 94.16 66.736 94.416 66.992C94.672 67.3333 94.8853 67.7173 95.056 68.144C95.2267 68.4853 95.3547 68.8693 95.44 69.296C95.44 69.7227 95.44 70.1493 95.44 70.576C95.3547 71.0027 95.2693 71.4293 95.184 71.856C95.0987 72.2827 95.056 72.7093 95.056 73.136C94.9707 73.5627 94.928 73.9893 94.928 74.416C94.928 74.8427 94.928 75.2693 94.928 75.696C94.928 76.1227 94.9707 76.5493 95.056 76.976C95.312 77.3173 95.6107 77.616 95.952 77.872C96.2933 77.9573 96.72 78.0427 97.232 78.128C97.5733 78.2133 97.9573 78.2987 98.384 78.384C98.8107 78.384 99.2373 78.4267 99.664 78.512C100.091 78.512 100.517 78.512 100.944 78.512C101.627 78.512 102.309 78.512 102.992 78.512C103.419 78.4267 103.845 78.384 104.272 78.384C104.699 78.384 105.083 78.3413 105.424 78.256C105.936 78.1707 106.405 78.0853 106.832 78C107.173 77.9147 107.557 77.7867 107.984 77.616C108.325 77.36 108.624 77.0613 108.88 76.72C109.136 76.3787 109.349 76.0373 109.52 75.696C109.691 75.3547 109.861 74.9707 110.032 74.544C110.203 74.1173 110.373 73.7333 110.544 73.392C110.629 72.9653 110.757 72.5387 110.928 72.112C111.013 71.6853 111.099 71.2587 111.184 70.832C111.269 70.4053 111.312 69.9787 111.312 69.552C111.739 65.968 112.165 62.384 112.592 58.8C112.592 58.3733 112.592 57.9467 112.592 57.52C112.592 57.0933 112.592 56.6667 112.592 56.24C112.592 55.8133 112.592 55.3867 112.592 54.96C112.507 54.5333 112.379 54.1067 112.208 53.68C111.952 53.3387 111.653 53.0827 111.312 52.912C110.885 52.912 110.459 52.912 110.032 52.912C109.605 52.9973 109.179 53.0827 108.752 53.168C108.411 53.2533 108.027 53.3813 107.6 53.552C107.173 53.6373 106.747 53.7653 106.32 53.936C105.979 54.1067 105.595 54.2773 105.168 54.448C104.741 54.6187 104.357 54.7893 104.016 54.96C97.872 58.4587 91.728 61.9573 85.584 65.456C85.2427 65.6267 84.9013 65.7973 84.56 65.968C84.1333 66.1387 83.7493 66.3093 83.408 66.48C82.9813 66.6507 82.5547 66.7787 82.128 66.864C81.5307 67.0347 80.9333 67.2053 80.336 67.376C79.9093 67.5467 79.4827 67.6747 79.056 67.76C78.6293 67.8453 78.2027 67.888 77.776 67.888C77.3493 67.8027 76.9227 67.7173 76.496 67.632C76.1547 67.4613 75.8133 67.2053 75.472 66.864C75.216 66.5227 75.0453 66.1813 74.96 65.84C74.8747 65.4133 74.7893 64.9867 74.704 64.56C74.6187 64.1333 74.576 63.7067 74.576 63.28C74.6613 51.0773 74.7893 38.9173 74.96 26.8C75.0453 26.3733 75.088 25.9467 75.088 25.52C75.088 23.8133 75.088 22.1067 75.088 20.4C75.088 19.9733 75.088 19.5467 75.088 19.12C75.088 18.6933 75.1307 18.2667 75.216 17.84C75.3013 17.4133 75.4293 16.9867 75.6 16.56C75.6853 16.2187 75.856 15.8347 76.112 15.408C76.2827 15.0667 76.496 14.7253 76.752 14.384C77.0933 14.0427 77.4347 13.744 77.776 13.488C78.1173 13.3173 78.4587 13.104 78.8 12.848C79.2267 12.6773 79.6107 12.5067 79.952 12.336C80.3787 12.1653 80.8053 12.0373 81.232 11.952C81.6587 11.952 82.0853 11.9093 82.512 11.824C84.2187 11.7387 85.9253 11.6533 87.632 11.568C88.0587 11.4827 88.4853 11.44 88.912 11.44C98.0427 10.7573 107.173 10.1173 116.304 9.52C116.731 9.52 117.157 9.52 117.584 9.52C117.84 9.52 118.053 9.52 118.224 9.52C118.651 9.52 119.077 9.52 119.504 9.52C120.784 9.60533 122.064 9.69066 123.344 9.77599C123.771 9.86133 124.197 9.94667 124.624 10.032C125.051 10.1173 125.477 10.2027 125.904 10.288C126.245 10.4587 126.629 10.672 127.056 10.928C127.397 11.0987 127.739 11.312 128.08 11.568C128.421 11.9093 128.72 12.208 128.976 12.464C129.232 12.8053 129.488 13.1467 129.744 13.488C129.915 13.9147 130.043 14.3413 130.128 14.768C130.299 15.1093 130.427 15.4933 130.512 15.92C130.597 16.3467 130.683 16.7733 130.768 17.2C130.768 17.6267 130.811 18.0533 130.896 18.48C130.896 18.9067 130.896 19.3333 130.896 19.76C130.896 20.1867 130.853 20.6133 130.768 21.04C130.683 21.4667 130.597 21.8933 130.512 22.32C130.256 22.6613 129.915 22.9173 129.488 23.088C129.147 23.2587 128.763 23.4293 128.336 23.6C127.909 23.6853 127.483 23.8133 127.056 23.984C126.459 24.1547 125.861 24.3253 125.264 24.496C124.837 24.5813 124.453 24.7093 124.112 24.88C117.883 27.2693 111.696 29.6587 105.552 32.048C105.125 32.2187 104.741 32.3467 104.4 32.432C103.973 32.5173 103.547 32.5173 103.12 32.432C102.949 32.0907 102.821 31.7067 102.736 31.28C102.736 30.8533 102.736 30.4267 102.736 30C102.736 29.5733 102.736 29.1467 102.736 28.72C102.821 28.2933 102.864 27.8667 102.864 27.44C102.949 27.0133 103.035 26.5867 103.12 26.16C103.205 25.7333 103.205 25.3067 103.12 24.88C102.779 24.624 102.437 24.4107 102.096 24.24C101.669 24.1547 101.243 24.0693 100.816 23.984C100.389 23.984 99.9627 23.984 99.536 23.984C99.1093 24.0693 98.6827 24.112 98.256 24.112C96.976 24.1973 95.696 24.2827 94.416 24.368C93.9893 24.368 93.52 24.4107 93.008 24.496C92.6667 24.496 92.2827 24.5387 91.856 24.624C91.4293 24.7947 91.0027 24.9653 90.576 25.136C90.2347 25.3067 89.8933 25.52 89.552 25.776C89.3813 26.1173 89.2107 26.5013 89.04 26.928C88.9547 27.3547 88.912 27.7813 88.912 28.208C88.8267 28.6347 88.7413 29.0613 88.656 29.488C88.656 29.9147 88.656 30.3413 88.656 30.768C88.656 33.072 88.656 35.4187 88.656 37.808C88.656 38.2347 88.6987 38.6613 88.784 39.088C88.8693 39.5147 88.912 39.9413 88.912 40.368C88.9973 40.7947 89.1253 41.2213 89.296 41.648C89.3813 41.9893 89.5093 42.3733 89.68 42.8C90.0213 43.056 90.4053 43.2267 90.832 43.312C91.2587 43.3973 91.6853 43.3973 92.112 43.312C92.5387 43.2267 92.9227 43.1413 93.264 43.056C94.3733 42.7147 95.44 42.416 96.464 42.16C96.8053 41.9893 97.1893 41.8613 97.616 41.776C98.0427 41.6907 98.4693 41.6053 98.896 41.52C99.3227 41.4347 99.7493 41.3493 100.176 41.264C100.603 41.1787 101.029 41.0933 101.456 41.008C101.797 40.9227 102.181 40.7947 102.608 40.624C103.035 40.5387 103.461 40.4107 103.888 40.24C104.229 40.0693 104.613 39.9413 105.04 39.856C105.467 39.6853 105.851 39.5147 106.192 39.344C106.619 39.1733 107.003 38.96 107.344 38.704C107.771 38.5333 108.155 38.3627 108.496 38.192C108.923 37.936 109.307 37.7227 109.648 37.552C113.061 35.76 116.432 33.9253 119.76 32.048C120.187 31.8773 120.571 31.7067 120.912 31.536C121.339 31.4507 121.765 31.3227 122.192 31.152C122.619 31.0667 123.045 30.9813 123.472 30.896C123.899 30.8107 124.325 30.768 124.752 30.768C125.179 30.768 125.605 30.768 126.032 30.768C126.459 30.8533 126.843 30.9387 127.184 31.024C127.611 31.28 127.995 31.4933 128.336 31.664C128.592 32.0053 128.891 32.3467 129.232 32.688C129.403 33.0293 129.616 33.4133 129.872 33.84C129.957 34.1813 130.085 34.5653 130.256 34.992C130.341 35.4187 130.427 35.8453 130.512 36.272C130.597 36.6987 130.683 37.1253 130.768 37.552C130.768 37.9787 130.811 38.4053 130.896 38.832C130.896 39.2587 130.896 39.6853 130.896 40.112C130.896 41.9893 130.939 43.9093 131.024 45.872C131.024 46.2987 131.067 46.7253 131.152 47.152C131.493 57.5627 131.835 67.9733 132.176 78.384C132.176 78.8107 132.133 79.2373 132.048 79.664C131.963 81.7973 131.835 83.9307 131.664 86.064C131.664 86.4907 131.664 86.9173 131.664 87.344C131.579 87.7707 131.493 88.1973 131.408 88.624C131.323 89.0507 131.237 89.4347 131.152 89.776C130.981 90.2027 130.811 90.6293 130.64 91.056C130.469 91.3973 130.299 91.7813 130.128 92.208C129.872 92.5493 129.616 92.8907 129.36 93.232C128.933 93.4027 128.549 93.5307 128.208 93.616C127.696 93.616 127.269 93.6587 126.928 93.744C126.501 93.744 126.032 93.744 125.52 93.744C122.96 93.6587 120.4 93.616 117.84 93.616C117.413 93.616 116.987 93.616 116.56 93.616C98.2133 93.616 89.2533 93.616 89.68 93.616C96.4213 93.616 99.5787 93.616 99.152 93.616C92.24 93.616 88.6133 93.616 88.272 93.616C86.5653 93.7867 84.8587 93.9147 83.152 94C82.7253 94 82.2987 94.0427 81.872 94.128C81.4453 94.128 81.0187 94.128 80.592 94.128C80.1653 94.128 79.7387 94.0853 79.312 94C78.8853 93.9147 78.4587 93.8293 78.032 93.744C77.6053 93.6587 77.1787 93.5307 76.752 93.36C76.4107 93.104 76.0693 92.848 75.728 92.592C75.472 92.2507 75.216 91.9093 74.96 91.568C74.7893 91.2267 74.6613 90.8427 74.576 90.416C74.4907 89.9893 74.4053 89.5627 74.32 89.136C74.32 88.7093 74.32 88.2827 74.32 87.856C74.32 87.4293 74.32 87.0027 74.32 86.576C74.2347 86.1493 74.192 85.7227 74.192 85.296C74.192 84.8693 74.1493 84.4427 74.064 84.016C73.9787 83.5893 73.8933 83.1627 73.808 82.736V82.352ZM135.061 38.192C135.232 37.8507 135.317 37.4667 135.317 37.04C135.317 36.1867 135.36 35.5893 135.445 35.248C135.445 34.3947 135.53 33.84 135.701 33.584C135.701 28.8907 135.616 26.3733 135.445 26.032C135.445 22.6187 135.488 20.7413 135.573 20.4C135.658 20.0587 135.701 19.6747 135.701 19.248C135.701 18.8213 135.744 18.4373 135.829 18.096C135.914 17.9253 135.957 17.7547 135.957 17.584C136.128 17.328 136.341 17.1147 136.597 16.944C136.853 16.7733 137.194 16.688 137.621 16.688C137.962 16.6027 138.304 16.5173 138.645 16.432C139.072 16.432 139.456 16.5173 139.797 16.688C140.65 16.688 141.205 16.7307 141.461 16.816C142.741 16.816 143.552 16.8587 143.893 16.944C145.173 16.944 145.984 17.0293 146.325 17.2C153.578 17.2 157.333 17.2427 157.589 17.328C158.869 17.328 159.68 17.3707 160.021 17.456C161.301 17.456 162.112 17.4987 162.453 17.584C162.794 17.6693 163.178 17.712 163.605 17.712C169.152 17.712 172.096 17.6267 172.437 17.456C174.144 17.456 175.168 17.4133 175.509 17.328C176.789 17.328 177.557 17.2853 177.813 17.2C178.666 17.2 179.306 17.1573 179.733 17.072C180.074 16.9867 180.458 16.944 180.885 16.944C181.312 16.944 181.696 16.9013 182.037 16.816C182.464 16.816 182.89 16.816 183.317 16.816C183.658 16.7307 184 16.688 184.341 16.688C184.768 16.688 185.194 16.6453 185.621 16.56C185.962 16.4747 186.346 16.432 186.773 16.432C187.2 16.432 187.541 16.3893 187.797 16.304C188.224 16.304 188.608 16.2613 188.949 16.176C189.376 16.0907 189.802 16.048 190.229 16.048C190.57 15.9627 190.954 15.92 191.381 15.92C191.808 15.92 192.149 15.8773 192.405 15.792C193.258 15.792 193.856 15.7067 194.197 15.536C194.624 15.536 195.008 15.5787 195.349 15.664C195.69 15.7493 196.074 15.792 196.501 15.792C196.842 15.8773 197.184 15.9627 197.525 16.048C197.781 16.2187 198.08 16.3467 198.421 16.432C198.677 16.6027 198.848 16.8587 198.933 17.2C199.018 17.5413 199.146 17.84 199.317 18.096C199.402 18.4373 199.445 18.8213 199.445 19.248C199.616 19.504 199.701 19.8453 199.701 20.272C199.701 20.6987 199.744 21.0827 199.829 21.424C199.829 28.2507 199.786 31.8347 199.701 32.176C199.701 33.0293 199.616 33.584 199.445 33.84C199.445 34.2667 199.445 34.6933 199.445 35.12C199.36 35.4613 199.274 35.8027 199.189 36.144C199.104 36.4853 199.018 36.8267 198.933 37.168C198.848 37.5093 198.72 37.8507 198.549 38.192C198.549 38.5333 198.421 38.832 198.165 39.088C198.08 39.344 197.994 39.6427 197.909 39.984C197.738 40.24 197.525 40.496 197.269 40.752C197.184 41.008 197.013 41.2213 196.757 41.392C196.586 41.648 196.373 41.8613 196.117 42.032C195.861 42.2027 195.605 42.3733 195.349 42.544C195.093 42.7147 194.794 42.8427 194.453 42.928C194.112 43.0133 193.728 43.056 193.301 43.056C193.045 43.2267 192.704 43.312 192.277 43.312C191.936 43.3973 191.552 43.44 191.125 43.44C190.272 43.44 189.717 43.3973 189.461 43.312C188.181 43.312 187.37 43.2267 187.029 43.056C185.749 43.056 184.938 43.0133 184.597 42.928C182.464 42.928 181.269 42.9707 181.013 43.056C180.842 43.3973 180.757 43.7813 180.757 44.208C180.757 44.6347 180.714 45.0187 180.629 45.36C180.629 47.0667 180.672 48.048 180.757 48.304C180.757 50.0107 180.842 51.0347 181.013 51.376C181.013 53.0827 181.013 54.1067 181.013 54.448C181.098 54.8747 181.141 55.3013 181.141 55.728C181.141 68.1013 181.098 74.4587 181.013 74.8C181.013 75.1413 181.013 75.5253 181.013 75.952C181.013 77.6587 180.928 78.6827 180.757 79.024C180.757 80.304 180.714 81.072 180.629 81.328C180.629 82.608 180.586 83.4187 180.501 83.76C180.501 84.6133 180.416 85.2107 180.245 85.552C180.245 85.9787 180.202 86.32 180.117 86.576C179.946 86.9173 179.818 87.2587 179.733 87.6C179.733 87.7707 179.69 87.9413 179.605 88.112C179.605 88.4533 179.52 88.7947 179.349 89.136C179.349 89.2213 179.306 89.3493 179.221 89.52C179.05 89.8613 178.922 90.16 178.837 90.416C178.581 90.672 178.41 90.928 178.325 91.184C178.154 91.5253 177.984 91.7813 177.813 91.952C177.557 92.1227 177.301 92.336 177.045 92.592C176.96 92.6773 176.832 92.7627 176.661 92.848C176.49 93.0187 176.277 93.232 176.021 93.488C175.85 93.488 175.722 93.5307 175.637 93.616C175.296 93.7013 174.912 93.744 174.485 93.744C174.144 93.9147 173.76 94 173.333 94C171.2 94 170.005 93.9147 169.749 93.744C167.616 93.744 166.378 93.8293 166.037 94C163.904 94 162.709 94 162.453 94C162.112 94 161.77 93.9573 161.429 93.872C161.002 93.7867 160.661 93.7013 160.405 93.616C160.234 93.5307 160.064 93.488 159.893 93.488C159.552 93.3173 159.296 93.1467 159.125 92.976C158.869 92.8053 158.613 92.592 158.357 92.336C158.272 92.2507 158.186 92.1227 158.101 91.952C157.93 91.7813 157.802 91.5253 157.717 91.184C157.546 90.928 157.376 90.672 157.205 90.416C157.205 89.9893 157.12 89.6053 156.949 89.264C156.949 86.704 157.034 85.296 157.205 85.04C157.205 81.6267 157.12 79.7493 156.949 79.408C156.949 76.4213 156.906 74.7573 156.821 74.416C156.821 59.4827 156.736 51.888 156.565 51.632C156.565 49.4987 156.522 48.2613 156.437 47.92C156.437 47.4933 156.437 47.0667 156.437 46.64C156.352 46.2987 156.309 45.9573 156.309 45.616C156.309 45.1893 156.266 44.7627 156.181 44.336C156.181 44.1653 156.138 43.9947 156.053 43.824C155.968 43.4827 155.925 43.0987 155.925 42.672C155.84 42.416 155.797 42.0747 155.797 41.648C155.626 41.3067 155.456 41.008 155.285 40.752C155.029 40.6667 154.73 40.5813 154.389 40.496C154.218 40.4107 154.048 40.3253 153.877 40.24C153.536 40.1547 153.152 40.112 152.725 40.112C152.469 39.9413 152.128 39.856 151.701 39.856C150.421 39.856 149.568 39.8987 149.141 39.984C148.8 40.0693 148.416 40.112 147.989 40.112C147.562 40.112 147.178 40.1547 146.837 40.24C146.496 40.24 146.112 40.24 145.685 40.24C145.258 40.24 144.874 40.3253 144.533 40.496C143.68 40.496 143.082 40.5387 142.741 40.624C142.314 40.624 141.888 40.624 141.461 40.624C139.754 40.624 138.773 40.5813 138.517 40.496C137.664 40.496 137.066 40.4107 136.725 40.24C136.384 40.24 136.085 40.112 135.829 39.856C135.573 39.6853 135.402 39.472 135.317 39.216L135.061 38.192ZM205.112 76.592C205.197 76.1653 205.24 75.7813 205.24 75.44C205.24 69.04 205.325 65.6693 205.496 65.328C205.496 60.208 205.539 57.52 205.624 57.264C205.624 52.144 205.709 49.4133 205.88 49.072C205.88 42.2453 205.923 38.704 206.008 38.448C206.008 32.048 206.008 28.6347 206.008 28.208C205.923 27.8667 205.88 27.4827 205.88 27.056C205.88 25.776 205.795 24.9653 205.624 24.624C205.624 24.1973 205.624 23.7707 205.624 23.344C205.624 22.064 205.581 21.296 205.496 21.04C205.496 18.0533 205.411 16.3893 205.24 16.048C205.411 15.7067 205.496 15.3227 205.496 14.896C205.496 13.616 205.539 12.848 205.624 12.592C205.624 12.1653 205.709 11.7813 205.88 11.44C205.88 11.0133 205.923 10.672 206.008 10.416C206.093 10.2453 206.136 10.0747 206.136 9.904C206.307 9.56267 206.52 9.30666 206.776 9.13599C206.861 9.05066 206.989 9.008 207.16 9.008C207.501 8.83733 207.885 8.752 208.312 8.752C208.568 8.66666 208.909 8.62399 209.336 8.62399C214.029 8.62399 216.547 8.66666 216.888 8.752C217.741 8.752 218.339 8.83733 218.68 9.008C219.533 9.008 220.088 9.05066 220.344 9.13599C221.197 9.13599 221.795 9.22133 222.136 9.392C222.392 9.47733 222.733 9.52 223.16 9.52C223.501 9.60533 223.885 9.64799 224.312 9.64799C224.909 9.904 225.549 10.16 226.232 10.416C226.488 10.5013 226.744 10.672 227 10.928C227.256 11.0133 227.469 11.184 227.64 11.44C227.896 11.6107 228.109 11.8667 228.28 12.208C228.365 12.464 228.408 12.8053 228.408 13.232C228.408 13.6587 228.451 14.0427 228.536 14.384C228.536 14.8107 228.579 15.1947 228.664 15.536C228.749 15.9627 228.792 16.3893 228.792 16.816C228.792 20.2293 228.749 22.1067 228.664 22.448C228.579 22.7893 228.536 23.1733 228.536 23.6C228.536 26.16 228.493 27.6107 228.408 27.952C228.408 38.192 228.451 43.44 228.536 43.696C228.536 52.656 228.621 57.3067 228.792 57.648C228.792 67.0347 228.835 71.8987 228.92 72.24C228.92 74.8 228.963 76.2507 229.048 76.592C229.133 76.9333 229.176 77.3173 229.176 77.744C229.176 79.4507 229.219 80.4747 229.304 80.816C229.304 83.376 229.261 84.8267 229.176 85.168C229.176 86.448 229.091 87.216 228.92 87.472C228.92 87.8987 228.877 88.2827 228.792 88.624C228.792 89.0507 228.707 89.392 228.536 89.648C228.536 89.8187 228.536 90.032 228.536 90.288C228.451 90.6293 228.365 90.9707 228.28 91.312C228.109 91.7387 227.896 92.1653 227.64 92.592C227.555 92.9333 227.427 93.232 227.256 93.488C226.829 93.488 226.445 93.5307 226.104 93.616C224.397 93.616 223.373 93.6587 223.032 93.744C219.021 93.744 214.968 93.744 210.872 93.744C210.445 93.744 210.104 93.7013 209.848 93.616C208.141 93.616 207.117 93.5733 206.776 93.488C206.349 93.488 206.008 93.4027 205.752 93.232C205.581 92.976 205.411 92.6773 205.24 92.336C205.24 91.9093 205.197 91.568 205.112 91.312V76.592ZM234.433 17.328C234.433 16.9013 234.476 16.5173 234.561 16.176C234.561 15.7493 234.604 15.3653 234.689 15.024C234.774 14.6827 234.86 14.3413 234.945 14C235.116 13.744 235.201 13.4027 235.201 12.976C235.286 12.6347 235.372 12.2933 235.457 11.952C235.628 11.696 235.756 11.3973 235.841 11.056C236.097 10.8853 236.268 10.6293 236.353 10.288C236.524 10.032 236.694 9.81866 236.865 9.64799C237.206 9.47733 237.462 9.264 237.633 9.008C237.974 8.92266 238.273 8.79466 238.529 8.62399C238.7 8.62399 238.87 8.58133 239.041 8.49599C239.382 8.41066 239.724 8.32533 240.065 8.24C240.492 8.24 240.876 8.19733 241.217 8.112C241.644 8.112 241.985 8.02666 242.241 7.856C246.081 7.856 248.172 7.94133 248.513 8.112C251.073 8.112 252.524 8.112 252.865 8.112C253.292 8.19733 253.718 8.24 254.145 8.24C258.838 8.24 261.356 8.19733 261.697 8.112C262.038 8.112 262.422 8.112 262.849 8.112C267.116 8.112 269.42 8.02666 269.761 7.856C275.734 7.856 278.849 7.94133 279.105 8.112C279.532 8.112 279.916 8.15467 280.257 8.24C280.684 8.24 281.068 8.32533 281.409 8.49599C281.494 8.49599 281.622 8.53866 281.793 8.62399C282.134 8.70933 282.476 8.83733 282.817 9.008C282.902 9.09333 283.03 9.17866 283.201 9.26399C283.372 9.43466 283.585 9.648 283.841 9.904C283.926 10.16 283.969 10.5013 283.969 10.928C284.14 11.184 284.225 11.5253 284.225 11.952C284.31 12.2933 284.353 12.6773 284.353 13.104C284.438 13.4453 284.524 13.8293 284.609 14.256C284.609 15.9627 284.566 16.9867 284.481 17.328C284.396 17.6693 284.353 18.0533 284.353 18.48C284.353 19.76 284.31 20.5707 284.225 20.912C284.225 23.0453 284.14 24.24 283.969 24.496C283.969 27.056 284.054 28.5067 284.225 28.848C284.225 29.2747 284.225 29.7013 284.225 30.128C284.225 31.8347 284.182 32.8587 284.097 33.2C284.012 33.6267 283.969 34.0107 283.969 34.352C283.884 34.6933 283.841 35.0773 283.841 35.504C283.756 35.8453 283.628 36.1867 283.457 36.528C283.372 36.784 283.201 37.04 282.945 37.296C282.86 37.552 282.732 37.8507 282.561 38.192C282.476 38.2773 282.39 38.3627 282.305 38.448C282.134 38.704 281.921 38.96 281.665 39.216C281.409 39.3013 281.196 39.472 281.025 39.728C280.684 39.8133 280.385 39.9413 280.129 40.112C279.873 40.2827 279.617 40.4533 279.361 40.624C278.593 40.88 277.825 41.1787 277.057 41.52C276.716 41.6053 276.417 41.776 276.161 42.032C275.905 42.2027 275.649 42.3307 275.393 42.416C275.137 42.5867 274.881 42.7573 274.625 42.928C274.284 43.0133 273.985 43.1413 273.729 43.312C273.473 43.568 273.217 43.7387 272.961 43.824C272.62 43.9093 272.321 44.08 272.065 44.336C271.724 44.336 271.382 44.4213 271.041 44.592C270.956 44.592 270.828 44.6347 270.657 44.72C270.316 44.8053 269.932 44.848 269.505 44.848C268.652 44.848 268.097 44.8053 267.841 44.72C267.414 44.72 267.03 44.6773 266.689 44.592C266.518 44.336 266.305 44.08 266.049 43.824C265.793 43.6533 265.622 43.3973 265.537 43.056C265.452 42.9707 265.409 42.8427 265.409 42.672C265.238 42.3307 265.153 41.9467 265.153 41.52C265.068 41.264 265.025 40.9227 265.025 40.496C265.025 40.0693 265.068 39.6853 265.153 39.344C265.153 38.064 265.238 37.2533 265.409 36.912C265.409 36.4853 265.452 36.144 265.537 35.888C265.537 35.4613 265.58 35.0773 265.665 34.736C265.665 33.456 265.75 32.688 265.921 32.432C265.921 29.872 265.836 28.4213 265.665 28.08C265.665 27.6533 265.622 27.2693 265.537 26.928C265.452 26.5867 265.409 26.2453 265.409 25.904C265.238 25.5627 265.025 25.3067 264.769 25.136C264.342 25.136 264.001 25.0933 263.745 25.008C259.905 25.008 257.772 24.9653 257.345 24.88C257.004 24.7947 256.62 24.752 256.193 24.752C254.486 24.752 253.462 24.7093 253.121 24.624C252.865 24.5387 252.566 24.5387 252.225 24.624C252.054 24.88 251.969 25.2213 251.969 25.648C251.969 42.288 251.926 50.7787 251.841 51.12C251.841 62.64 251.798 68.5707 251.713 68.912C251.713 71.472 251.628 72.88 251.457 73.136C251.457 73.5627 251.5 73.9893 251.585 74.416C251.67 74.7573 251.713 75.1413 251.713 75.568C251.713 75.9947 251.756 76.336 251.841 76.592C252.012 76.9333 252.31 77.104 252.737 77.104C252.993 76.9333 253.334 76.848 253.761 76.848C254.614 76.848 255.212 76.9333 255.553 77.104C257.686 77.104 258.924 77.1467 259.265 77.232C260.972 77.232 261.953 77.1893 262.209 77.104C262.636 77.104 263.02 77.0613 263.361 76.976C263.788 76.8907 264.086 76.7627 264.257 76.592C264.428 76.2507 264.556 75.952 264.641 75.696C264.726 75.3547 264.812 74.9707 264.897 74.544C264.982 74.2027 265.025 73.8187 265.025 73.392C265.025 71.2587 264.982 70.064 264.897 69.808C264.897 67.8453 264.854 65.9253 264.769 64.048C264.769 63.6213 264.854 63.2373 265.025 62.896C265.11 62.64 265.196 62.3413 265.281 62C265.537 61.8293 265.793 61.6587 266.049 61.488C266.39 61.3173 266.689 61.1893 266.945 61.104C267.286 60.9333 267.585 60.7627 267.841 60.592C268.097 60.4213 268.353 60.2933 268.609 60.208C269.121 60.0373 269.59 59.8667 270.017 59.696C270.358 59.5253 270.657 59.3547 270.913 59.184C271.169 59.0133 271.425 58.8853 271.681 58.8C272.022 58.6293 272.364 58.5013 272.705 58.416C272.961 58.3307 273.26 58.2027 273.601 58.032C273.772 57.8613 274.028 57.6907 274.369 57.52C275.137 57.1787 275.905 56.88 276.673 56.624C276.929 56.5387 277.185 56.368 277.441 56.112C277.782 56.112 278.081 55.984 278.337 55.728C278.593 55.6427 278.892 55.5147 279.233 55.344C280.172 55.0027 281.11 54.6613 282.049 54.32C282.305 54.2347 282.646 54.192 283.073 54.192C283.329 54.1067 283.542 54.192 283.713 54.448C283.713 65.1147 283.756 70.6613 283.841 71.088C283.841 71.4293 283.841 71.8133 283.841 72.24C283.841 79.0667 283.798 82.6507 283.713 82.992C283.713 83.8453 283.628 84.4 283.457 84.656C283.457 85.0827 283.414 85.4667 283.329 85.808C283.244 85.9787 283.201 86.1067 283.201 86.192C283.03 86.5333 282.902 86.8747 282.817 87.216C282.732 87.5573 282.604 87.856 282.433 88.112C282.348 88.368 282.22 88.6667 282.049 89.008C281.793 89.1787 281.622 89.4347 281.537 89.776C281.281 89.9467 281.025 90.1173 280.769 90.288C280.598 90.544 280.385 90.7573 280.129 90.928C279.958 91.184 279.702 91.3547 279.361 91.44C279.105 91.6107 278.764 91.696 278.337 91.696C277.996 91.7813 277.697 91.8667 277.441 91.952C277.014 91.952 276.63 92.0373 276.289 92.208C275.948 92.2933 275.564 92.336 275.137 92.336C273.857 92.336 273.089 92.4213 272.833 92.592C269.846 92.592 268.182 92.5067 267.841 92.336C266.988 92.336 266.433 92.2933 266.177 92.208C264.897 92.208 264.086 92.1227 263.745 91.952C262.892 91.952 262.294 91.9093 261.953 91.824C261.1 91.824 260.502 91.7813 260.161 91.696C259.82 91.696 259.436 91.696 259.009 91.696C258.156 91.696 257.558 91.6107 257.217 91.44C252.097 91.44 249.366 91.4827 249.025 91.568C248.598 91.6533 248.172 91.696 247.745 91.696C247.404 91.696 247.062 91.7387 246.721 91.824C243.308 91.824 241.43 91.7813 241.089 91.696C240.662 91.696 240.278 91.6533 239.937 91.568C239.596 91.4827 239.254 91.3973 238.913 91.312C238.742 91.2267 238.572 91.1413 238.401 91.056C238.145 90.9707 237.846 90.8853 237.505 90.8C237.078 90.7147 236.78 90.5867 236.609 90.416C236.524 90.3307 236.438 90.2027 236.353 90.032C236.097 89.776 235.841 89.6053 235.585 89.52C235.414 89.264 235.286 88.9653 235.201 88.624C235.116 88.4533 235.03 88.3253 234.945 88.24C234.86 87.8987 234.774 87.5573 234.689 87.216C234.604 86.7893 234.561 86.3627 234.561 85.936C234.476 85.68 234.433 85.3387 234.433 84.912C234.433 83.2053 234.476 82.1813 234.561 81.84C234.561 81.4133 234.646 81.072 234.817 80.816C234.817 80.3893 234.817 79.9627 234.817 79.536C234.902 79.1947 234.945 78.8107 234.945 78.384C235.116 78.0427 235.201 77.6587 235.201 77.232C235.201 71.2587 235.116 68.144 234.945 67.888C234.945 65.328 234.902 63.8773 234.817 63.536C234.817 61.6587 234.817 59.7387 234.817 57.776C234.817 57.3493 234.774 56.9653 234.689 56.624C234.604 56.2827 234.561 55.8987 234.561 55.472C234.561 52.4853 234.518 50.8213 234.433 50.48C234.433 44.9333 234.476 41.9893 234.561 41.648C234.561 40.368 234.604 39.5573 234.689 39.216C234.774 38.8747 234.817 38.4907 234.817 38.064C234.817 37.6373 234.86 37.2533 234.945 36.912C234.945 36.0587 235.03 35.504 235.201 35.248C235.201 34.8213 235.244 34.4373 235.329 34.096C235.329 31.1093 235.286 29.4453 235.201 29.104C235.201 28.6773 235.116 28.2933 234.945 27.952C234.945 27.6107 234.945 27.2267 234.945 26.8C234.86 26.4587 234.817 26.0747 234.817 25.648C234.817 25.2213 234.732 24.8373 234.561 24.496C234.561 23.216 234.518 22.448 234.433 22.192C234.433 21.7653 234.433 21.3387 234.433 20.912V17.328ZM289.737 88.496C289.822 88.1547 289.865 87.7707 289.865 87.344C289.865 85.6373 289.95 84.6133 290.121 84.272C290.121 82.992 290.164 82.224 290.249 81.968C290.249 81.5413 290.292 81.1573 290.377 80.816C290.462 80.3893 290.505 79.9627 290.505 79.536C290.59 79.28 290.633 78.9387 290.633 78.512C290.633 75.0987 290.59 73.2213 290.505 72.88C290.505 71.1733 290.42 70.1493 290.249 69.808C290.249 68.9547 290.334 68.4 290.505 68.144C290.505 65.584 290.548 64.1333 290.633 63.792C290.633 62.0853 290.676 61.104 290.761 60.848C290.761 55.3013 290.718 52.3573 290.633 52.016C290.633 47.3227 290.676 44.8053 290.761 44.464C290.761 43.184 290.804 42.3733 290.889 42.032C290.974 41.6907 291.017 41.3067 291.017 40.88C291.102 40.5387 291.145 40.1547 291.145 39.728C291.145 39.3013 291.23 38.9173 291.401 38.576C291.401 37.7227 291.444 37.168 291.529 36.912C291.529 35.632 291.572 34.8213 291.657 34.48C291.657 34.0533 291.614 33.712 291.529 33.456C291.529 31.3227 291.486 30.0853 291.401 29.744C291.401 29.3173 291.358 28.9333 291.273 28.592C291.188 28.1653 291.145 27.7387 291.145 27.312C291.06 27.056 291.017 26.7147 291.017 26.288C291.017 25.8613 290.932 25.4773 290.761 25.136C290.761 24.2827 290.718 23.6853 290.633 23.344C290.633 23.0027 290.633 22.6187 290.633 22.192C290.633 21.7653 290.59 21.3813 290.505 21.04C290.505 19.3333 290.42 18.3093 290.249 17.968C290.249 17.1147 290.334 16.56 290.505 16.304C290.505 15.024 290.548 14.2133 290.633 13.872C290.718 13.616 290.761 13.2747 290.761 12.848C290.846 12.6773 290.932 12.5067 291.017 12.336C291.102 11.9947 291.23 11.696 291.401 11.44C291.742 11.3547 292.041 11.2267 292.297 11.056C292.638 10.9707 293.022 10.928 293.449 10.928C293.79 10.8427 294.174 10.8 294.601 10.8C300.148 10.8 303.049 10.8427 303.305 10.928C305.012 10.928 306.078 10.9707 306.505 11.056C306.846 11.056 307.23 11.056 307.657 11.056C308.084 11.1413 308.425 11.2267 308.681 11.312C309.108 11.312 309.492 11.3547 309.833 11.44C310.26 11.44 310.644 11.5253 310.985 11.696C311.412 11.696 311.753 11.7387 312.009 11.824C312.18 11.9093 312.35 11.952 312.521 11.952C312.777 12.1227 313.076 12.2507 313.417 12.336C313.502 12.6773 313.63 12.976 313.801 13.232C313.886 13.5733 314.014 13.872 314.185 14.128C314.27 14.5547 314.356 14.896 314.441 15.152C314.612 15.4933 314.697 15.8773 314.697 16.304C314.782 16.56 314.825 16.9013 314.825 17.328C314.825 18.608 314.782 19.4613 314.697 19.888C314.697 20.2293 314.697 20.6133 314.697 21.04C314.526 21.3813 314.441 21.7653 314.441 22.192C314.356 22.448 314.313 22.7893 314.313 23.216C314.228 23.5573 314.142 23.9413 314.057 24.368C314.057 24.7947 314.014 25.136 313.929 25.392C313.929 25.8187 313.886 26.2027 313.801 26.544C313.801 26.9707 313.716 27.3547 313.545 27.696C313.545 30.6827 313.588 32.3467 313.673 32.688C313.844 32.944 313.972 33.2 314.057 33.456C314.398 33.3707 314.654 33.2 314.825 32.944C314.996 32.7733 315.166 32.5173 315.337 32.176C315.593 32.0053 315.806 31.792 315.977 31.536C316.148 31.28 316.276 31.024 316.361 30.768C316.617 30.512 316.83 30.256 317.001 30C317.172 29.744 317.342 29.488 317.513 29.232C317.598 28.8907 317.726 28.592 317.897 28.336C318.068 28.08 318.238 27.824 318.409 27.568C318.58 27.3973 318.75 27.1413 318.921 26.8C319.092 26.544 319.262 26.288 319.433 26.032C319.689 25.8613 319.86 25.648 319.945 25.392C320.201 25.136 320.414 24.88 320.585 24.624C320.756 24.368 320.969 24.1547 321.225 23.984C321.481 23.8133 321.694 23.6 321.865 23.344C322.121 23.0027 322.42 22.6613 322.761 22.32C322.932 22.064 323.145 21.8507 323.401 21.68C323.486 21.5947 323.572 21.4667 323.657 21.296C323.913 21.1253 324.126 20.912 324.297 20.656C324.468 20.4 324.681 20.1867 324.937 20.016C325.022 19.9307 325.108 19.8027 325.193 19.632C325.364 19.376 325.577 19.1627 325.833 18.992C326.004 18.736 326.174 18.48 326.345 18.224C326.516 18.1387 326.644 18.0533 326.729 17.968C326.985 17.7973 327.198 17.584 327.369 17.328C327.54 17.072 327.71 16.8587 327.881 16.688C327.966 16.5173 328.094 16.3893 328.265 16.304C328.436 16.048 328.649 15.8347 328.905 15.664C329.076 15.4933 329.246 15.2373 329.417 14.896C329.502 14.8107 329.63 14.7253 329.801 14.64C329.972 14.384 330.185 14.1707 330.441 14C330.612 13.744 330.782 13.488 330.953 13.232C331.209 13.0613 331.38 12.848 331.465 12.592C331.636 12.4213 331.764 12.2933 331.849 12.208C332.105 12.0373 332.318 11.8667 332.489 11.696C332.66 11.5253 332.788 11.3973 332.873 11.312C333.044 11.056 333.3 10.8853 333.641 10.8C334.068 10.8 334.409 10.7147 334.665 10.544C335.006 10.4587 335.39 10.416 335.817 10.416C336.244 10.416 336.585 10.3733 336.841 10.288C338.121 10.288 338.932 10.3307 339.273 10.416C340.126 10.416 340.724 10.4587 341.065 10.544C341.918 10.544 342.473 10.6293 342.729 10.8C344.009 10.8 344.82 10.8427 345.161 10.928C346.868 10.928 347.849 10.8853 348.105 10.8C350.238 10.8 351.476 10.7147 351.817 10.544C352.158 10.6293 352.542 10.7147 352.969 10.8C353.822 10.8 354.377 10.8427 354.633 10.928C354.974 11.0133 355.145 11.2693 355.145 11.696C355.145 11.7813 355.145 11.8667 355.145 11.952C355.145 12.3787 355.102 12.7627 355.017 13.104C354.846 13.4453 354.676 13.744 354.505 14C354.334 14.1707 354.206 14.4267 354.121 14.768C353.95 15.024 353.78 15.28 353.609 15.536C353.438 15.8773 353.31 16.176 353.225 16.432C352.969 16.6027 352.756 16.8587 352.585 17.2C352.414 17.3707 352.244 17.584 352.073 17.84C351.988 18.0107 351.902 18.1387 351.817 18.224C351.646 18.48 351.476 18.736 351.305 18.992C351.049 19.1627 350.836 19.4187 350.665 19.76C350.494 19.9307 350.324 20.1867 350.153 20.528C349.897 20.6987 349.684 20.8693 349.513 21.04C349.257 21.3813 348.958 21.7653 348.617 22.192C348.446 22.3627 348.276 22.576 348.105 22.832C347.934 23.088 347.721 23.344 347.465 23.6C347.294 23.7707 347.124 23.984 346.953 24.24C346.782 24.496 346.569 24.7093 346.313 24.88C346.057 25.0507 345.886 25.3067 345.801 25.648C345.545 25.8187 345.289 26.032 345.033 26.288C344.948 26.544 344.777 26.7573 344.521 26.928C344.35 27.2693 344.18 27.5253 344.009 27.696C343.838 27.952 343.668 28.2507 343.497 28.592C343.412 28.6773 343.326 28.7627 343.241 28.848C343.07 29.104 342.9 29.36 342.729 29.616C342.473 29.872 342.302 30.128 342.217 30.384C341.961 30.5547 341.79 30.8107 341.705 31.152C341.534 31.408 341.321 31.664 341.065 31.92C340.98 32.176 340.809 32.3893 340.553 32.56C340.382 32.816 340.212 33.072 340.041 33.328C339.87 33.584 339.7 33.84 339.529 34.096C339.444 34.4373 339.273 34.6933 339.017 34.864C338.846 35.12 338.676 35.376 338.505 35.632C338.334 35.888 338.121 36.144 337.865 36.4C337.694 36.5707 337.524 36.784 337.353 37.04C337.268 37.3813 337.097 37.6373 336.841 37.808C336.585 38.064 336.414 38.32 336.329 38.576C336.073 38.7467 335.86 38.96 335.689 39.216C335.518 39.472 335.305 39.6853 335.049 39.856C334.878 40.112 334.708 40.368 334.537 40.624C334.366 40.88 334.153 41.136 333.897 41.392C333.726 41.5627 333.556 41.776 333.385 42.032C333.214 42.288 333.001 42.5013 332.745 42.672C332.66 42.7573 332.532 42.8853 332.361 43.056C332.19 43.2267 331.977 43.44 331.721 43.696C331.55 43.8667 331.38 44.08 331.209 44.336C331.038 44.592 330.825 44.848 330.569 45.104C330.484 45.1893 330.398 45.2747 330.313 45.36C330.057 45.5307 329.801 45.744 329.545 46C329.46 46.0853 329.374 46.1707 329.289 46.256C329.118 46.512 328.905 46.7253 328.649 46.896C328.393 47.152 328.18 47.3653 328.009 47.536C327.924 47.7067 327.838 47.8347 327.753 47.92C327.497 48.176 327.284 48.3893 327.113 48.56C326.857 48.7307 326.686 48.9867 326.601 49.328C326.43 49.4133 326.302 49.4987 326.217 49.584C325.961 49.7547 325.79 50.0107 325.705 50.352C325.449 50.5227 325.236 50.7787 325.065 51.12C324.894 51.2907 324.852 51.5467 324.937 51.888C324.937 52.2293 325.022 52.5707 325.193 52.912C325.364 53.168 325.534 53.424 325.705 53.68C325.79 54.0213 325.918 54.2773 326.089 54.448C326.26 54.704 326.43 55.0027 326.601 55.344C326.772 55.5147 326.942 55.7707 327.113 56.112C327.284 56.368 327.454 56.624 327.625 56.88C327.796 57.0507 327.966 57.264 328.137 57.52C328.222 57.8613 328.393 58.1173 328.649 58.288C328.82 58.6293 328.99 58.8853 329.161 59.056C329.332 59.3973 329.46 59.696 329.545 59.952C329.716 60.208 329.886 60.464 330.057 60.72C330.228 61.232 330.398 61.7013 330.569 62.128C330.74 62.4693 330.91 62.768 331.081 63.024C331.252 63.28 331.38 63.536 331.465 63.792C331.636 64.1333 331.806 64.432 331.977 64.688C332.148 64.944 332.276 65.2 332.361 65.456C332.446 65.6267 332.532 65.7973 332.617 65.968C332.702 66.224 332.83 66.48 333.001 66.736C333.172 66.992 333.342 67.2907 333.513 67.632C333.684 67.888 333.854 68.144 334.025 68.4C334.11 68.4853 334.153 68.6133 334.153 68.784C334.324 69.1253 334.494 69.3813 334.665 69.552C334.836 69.8933 334.964 70.192 335.049 70.448C335.22 70.7893 335.348 71.088 335.433 71.344C335.518 71.6853 335.646 71.984 335.817 72.24C336.073 72.496 336.244 72.7947 336.329 73.136C336.414 73.2213 336.457 73.3493 336.457 73.52C336.628 73.8613 336.798 74.1173 336.969 74.288C337.054 74.4587 337.14 74.6293 337.225 74.8C337.31 75.056 337.481 75.2693 337.737 75.44C337.822 75.6107 337.865 75.7813 337.865 75.952C338.036 76.2933 338.249 76.5493 338.505 76.72C338.676 76.976 338.846 77.232 339.017 77.488C339.188 77.6587 339.358 77.9147 339.529 78.256C339.785 78.4267 339.956 78.64 340.041 78.896C340.297 79.152 340.468 79.408 340.553 79.664C340.809 79.8347 340.98 80.0907 341.065 80.432C341.321 80.6027 341.534 80.8587 341.705 81.2C341.876 81.3707 342.089 81.5413 342.345 81.712C342.43 81.8827 342.516 82.0533 342.601 82.224C342.686 82.5653 342.857 82.8213 343.113 82.992C343.113 83.1627 343.156 83.2907 343.241 83.376C343.326 83.7173 343.497 83.9733 343.753 84.144C343.838 84.3147 343.924 84.4853 344.009 84.656C344.094 84.912 344.265 85.168 344.521 85.424C344.606 85.68 344.734 85.9787 344.905 86.32C344.99 86.6613 345.161 86.9173 345.417 87.088C345.502 87.344 345.63 87.6 345.801 87.856C345.972 88.112 346.185 88.368 346.441 88.624C346.612 88.88 346.74 89.1787 346.825 89.52C346.996 89.776 347.166 90.032 347.337 90.288C347.422 90.544 347.55 90.8 347.721 91.056C347.892 91.312 348.062 91.6107 348.233 91.952C348.404 92.3787 348.574 92.8053 348.745 93.232C348.916 93.5733 348.916 93.9147 348.745 94.256C348.489 94.4267 348.276 94.5973 348.105 94.768C347.678 94.8533 347.337 94.9387 347.081 95.024C346.654 94.9387 346.27 94.896 345.929 94.896C345.502 94.896 345.118 94.8107 344.777 94.64C344.35 94.64 343.966 94.64 343.625 94.64C343.284 94.5547 342.9 94.512 342.473 94.512C341.62 94.512 341.022 94.4267 340.681 94.256C339.828 94.256 339.273 94.3413 339.017 94.512C336.457 94.512 335.006 94.5547 334.665 94.64C332.958 94.64 331.934 94.5973 331.593 94.512C330.74 94.512 330.185 94.4267 329.929 94.256C329.502 94.256 329.118 94.2133 328.777 94.128C328.436 94.0427 328.094 93.9573 327.753 93.872C327.412 93.7867 327.07 93.7013 326.729 93.616C326.558 93.5307 326.43 93.488 326.345 93.488C326.004 93.3173 325.705 93.1467 325.449 92.976C325.193 92.8053 324.98 92.592 324.809 92.336C324.468 92.2507 324.169 92.1227 323.913 91.952C323.742 91.7813 323.486 91.6107 323.145 91.44C323.06 91.0987 322.889 90.8427 322.633 90.672C322.377 90.5013 322.206 90.2453 322.121 89.904C321.865 89.7333 321.694 89.4773 321.609 89.136C321.353 88.9653 321.182 88.752 321.097 88.496C320.841 88.24 320.628 87.984 320.457 87.728C320.372 87.3867 320.244 87.088 320.073 86.832C319.902 86.576 319.732 86.32 319.561 86.064C319.476 85.7227 319.305 85.4667 319.049 85.296C318.964 84.9547 318.793 84.6987 318.537 84.528C318.452 84.1867 318.324 83.888 318.153 83.632C317.982 83.376 317.812 83.12 317.641 82.864C317.556 82.5227 317.428 82.2667 317.257 82.096C317.086 81.84 316.916 81.5413 316.745 81.2C316.489 81.0293 316.318 80.7733 316.233 80.432C315.977 80.2613 315.806 80.048 315.721 79.792C315.38 79.6213 315.081 79.4507 314.825 79.28C314.569 79.3653 314.398 79.536 314.313 79.792C314.313 83.632 314.356 85.7227 314.441 86.064C314.441 88.624 314.398 90.0747 314.313 90.416C314.313 90.8427 314.228 91.184 314.057 91.44C314.057 91.6107 314.057 91.7813 314.057 91.952C313.972 92.3787 313.801 92.6773 313.545 92.848C313.46 93.1893 313.289 93.4453 313.033 93.616C312.862 93.872 312.606 94.0427 312.265 94.128C312.009 94.2133 311.668 94.256 311.241 94.256C310.9 94.4267 310.516 94.512 310.089 94.512C309.236 94.512 308.638 94.5547 308.297 94.64C306.59 94.64 305.609 94.7253 305.353 94.896C299.38 94.896 296.222 94.8107 295.881 94.64C295.028 94.64 294.473 94.5973 294.217 94.512C293.79 94.512 293.406 94.4267 293.065 94.256C292.638 94.256 292.254 94.2133 291.913 94.128C291.657 94.0427 291.401 93.872 291.145 93.616C290.974 93.36 290.804 93.104 290.633 92.848C290.548 92.592 290.42 92.2933 290.249 91.952C290.164 91.696 290.121 91.3547 290.121 90.928C289.95 90.5867 289.865 90.2027 289.865 89.776C289.865 89.3493 289.822 88.9653 289.737 88.624V88.496ZM365.812 74.544C365.897 74.288 365.94 73.9467 365.94 73.52C365.94 70.96 366.025 69.5093 366.196 69.168C366.196 68.3147 366.239 67.7173 366.324 67.376C366.324 66.096 366.409 65.328 366.58 65.072C366.58 64.2187 366.58 63.5787 366.58 63.152C366.665 62.8107 366.708 62.4267 366.708 62C366.708 61.1467 366.751 60.592 366.836 60.336C366.836 57.776 366.921 56.3253 367.092 55.984C367.092 51.7173 367.135 49.4133 367.22 49.072C367.22 38.4053 367.177 32.944 367.092 32.688C367.092 32.2613 367.092 31.8347 367.092 31.408C367.092 29.7013 367.007 28.6773 366.836 28.336C366.836 26.2027 366.793 25.008 366.708 24.752C366.708 20.4853 366.751 18.1813 366.836 17.84C366.836 17.4133 366.921 17.0293 367.092 16.688C367.092 16.2613 367.135 15.92 367.22 15.664C367.391 15.3227 367.561 15.0667 367.732 14.896C368.159 14.896 368.543 14.8107 368.884 14.64C374.431 14.64 377.332 14.5973 377.588 14.512C377.929 14.5973 378.143 14.8107 378.228 15.152C378.399 15.408 378.527 15.7067 378.612 16.048C378.612 16.4747 378.612 16.9013 378.612 17.328C378.527 17.6693 378.484 18.0533 378.484 18.48C378.484 18.5653 378.527 18.6933 378.612 18.864C378.697 19.2053 378.868 19.4613 379.124 19.632C379.295 19.7173 379.465 19.8027 379.636 19.888C379.892 19.9733 380.233 20.016 380.66 20.016C380.831 19.9307 381.001 19.888 381.172 19.888C381.513 19.7173 381.897 19.632 382.324 19.632C382.58 19.5467 382.921 19.504 383.348 19.504C383.519 19.4187 383.689 19.3333 383.86 19.248C384.116 19.1627 384.457 19.12 384.884 19.12C385.225 18.9493 385.524 18.7787 385.78 18.608C386.036 18.4373 386.335 18.3093 386.676 18.224C387.273 17.968 387.871 17.712 388.468 17.456C388.809 17.3707 389.065 17.2427 389.236 17.072C389.492 16.9013 389.791 16.7733 390.132 16.688C390.9 16.3467 391.668 16.048 392.436 15.792C392.777 15.6213 393.161 15.536 393.588 15.536C393.844 15.4507 394.185 15.408 394.612 15.408C394.953 15.2373 395.337 15.152 395.764 15.152C396.105 15.0667 396.489 15.024 396.916 15.024C398.623 15.024 399.647 15.0667 399.988 15.152C400.329 15.152 400.713 15.152 401.14 15.152C401.481 15.3227 401.865 15.408 402.292 15.408C402.548 15.4933 402.889 15.536 403.316 15.536C403.657 15.7067 403.999 15.792 404.34 15.792C404.767 15.8773 405.108 15.9627 405.364 16.048C405.791 16.1333 406.175 16.2187 406.516 16.304C406.772 16.3893 407.113 16.432 407.54 16.432C407.711 16.5173 407.881 16.6027 408.052 16.688C408.393 16.7733 408.735 16.8587 409.076 16.944C409.247 16.944 409.417 16.9867 409.588 17.072C409.929 17.1573 410.228 17.2427 410.484 17.328C410.825 17.4133 411.209 17.456 411.636 17.456C411.807 17.5413 411.977 17.6267 412.148 17.712C412.404 17.7973 412.745 17.8827 413.172 17.968C413.513 18.0533 413.855 18.1387 414.196 18.224C414.281 18.3093 414.409 18.352 414.58 18.352C414.921 18.5227 415.305 18.608 415.732 18.608C416.5 18.864 417.268 19.1627 418.036 19.504C418.292 19.5893 418.591 19.6747 418.932 19.76C419.103 19.8453 419.316 19.888 419.572 19.888C419.913 19.9733 420.212 20.0587 420.468 20.144C420.895 20.144 421.279 20.1013 421.62 20.016C422.047 20.016 422.388 19.9733 422.644 19.888C423.071 19.888 423.455 19.8027 423.796 19.632C424.137 19.5467 424.436 19.4187 424.692 19.248C425.033 19.1627 425.332 19.0347 425.588 18.864C425.844 18.6933 426.1 18.5227 426.356 18.352C426.527 18.352 426.697 18.3093 426.868 18.224C427.209 18.1387 427.465 17.968 427.636 17.712C427.892 17.5413 428.191 17.4133 428.532 17.328C428.788 17.1573 429.044 16.9867 429.3 16.816C429.641 16.7307 429.94 16.6027 430.196 16.432C430.537 16.3467 430.836 16.2187 431.092 16.048C431.433 15.9627 431.817 15.92 432.244 15.92C432.585 15.8347 432.969 15.792 433.396 15.792C433.481 15.7067 433.609 15.6213 433.78 15.536C434.121 15.4507 434.505 15.408 434.932 15.408C435.785 15.408 436.34 15.3227 436.596 15.152C439.156 15.152 440.607 15.2373 440.948 15.408C441.375 15.408 441.759 15.4507 442.1 15.536C442.527 15.536 442.953 15.536 443.38 15.536C443.465 15.6213 443.593 15.7067 443.764 15.792C444.105 15.8773 444.489 15.92 444.916 15.92C445.087 16.0053 445.215 16.048 445.3 16.048C445.641 16.2187 445.983 16.3467 446.324 16.432C446.751 16.432 447.092 16.5173 447.348 16.688C447.689 16.7733 448.073 16.816 448.5 16.816C450.207 17.4987 451.913 18.1387 453.62 18.736C453.876 18.9067 454.175 19.0347 454.516 19.12C454.772 19.2053 455.071 19.3333 455.412 19.504C455.753 19.5893 456.009 19.76 456.18 20.016C456.436 20.1013 456.735 20.2293 457.076 20.4C457.161 20.4853 457.247 20.5707 457.332 20.656C457.588 20.912 457.844 21.1253 458.1 21.296C458.356 21.4667 458.612 21.6373 458.868 21.808C459.039 22.064 459.295 22.2347 459.636 22.32C459.807 22.576 460.063 22.7467 460.404 22.832C460.489 23.0027 460.575 23.1307 460.66 23.216C460.831 23.472 461.087 23.6427 461.428 23.728C461.599 23.984 461.769 24.1973 461.94 24.368C462.281 24.5387 462.537 24.752 462.708 25.008C462.793 25.0933 462.921 25.1787 463.092 25.264C463.348 25.4347 463.561 25.648 463.732 25.904C464.073 26.3307 464.457 26.8 464.884 27.312C465.055 27.568 465.225 27.824 465.396 28.08C465.652 28.2507 465.78 28.5067 465.78 28.848C465.865 29.2747 465.951 29.616 466.036 29.872C466.207 30.2133 466.292 30.5973 466.292 31.024C466.377 31.3653 466.42 31.7493 466.42 32.176C466.42 34.3093 466.505 35.504 466.676 35.76C466.676 38.32 466.719 39.7707 466.804 40.112C466.804 42.672 466.804 44.1653 466.804 44.592C466.889 44.848 466.932 45.1893 466.932 45.616C466.932 46.0427 466.889 46.4267 466.804 46.768C466.804 48.9013 466.761 50.1387 466.676 50.48C466.676 52.1867 466.633 53.2107 466.548 53.552C466.463 53.8933 466.42 54.2773 466.42 54.704C466.42 55.984 466.377 56.7947 466.292 57.136C466.292 57.5627 466.292 57.9893 466.292 58.416C466.292 59.696 466.249 60.5067 466.164 60.848C466.079 61.2747 466.036 61.7013 466.036 62.128C466.036 62.5547 466.121 62.896 466.292 63.152C466.292 66.1387 466.335 67.8027 466.42 68.144C466.42 69.8507 466.505 70.832 466.676 71.088C466.676 71.9413 466.719 72.5387 466.804 72.88C466.804 73.7333 466.847 74.3307 466.932 74.672C466.932 75.952 467.017 76.72 467.188 76.976C467.188 78.256 467.231 79.0667 467.316 79.408C467.316 80.2613 467.316 81.1147 467.316 81.968C467.316 82.3947 467.359 82.7787 467.444 83.12C467.444 83.4613 467.444 83.8453 467.444 84.272C467.444 85.1253 467.401 85.7227 467.316 86.064C467.316 87.7707 467.273 88.7947 467.188 89.136C467.188 89.5627 467.103 89.904 466.932 90.16C466.932 90.5867 466.889 90.9707 466.804 91.312C466.804 91.4827 466.761 91.6533 466.676 91.824C466.591 92.1653 466.505 92.5067 466.42 92.848C466.335 93.0187 466.292 93.1893 466.292 93.36C466.121 93.616 465.951 93.872 465.78 94.128C465.609 94.384 465.396 94.5973 465.14 94.768C464.884 94.9387 464.543 95.024 464.116 95.024C463.86 95.1093 463.561 95.1093 463.22 95.024C462.793 95.024 462.409 94.9813 462.068 94.896C461.641 94.896 461.3 94.8107 461.044 94.64C460.617 94.64 460.233 94.5973 459.892 94.512C456.905 94.512 455.241 94.5547 454.9 94.64C453.62 94.64 452.852 94.7253 452.596 94.896C452.169 94.896 451.743 94.896 451.316 94.896C450.889 94.896 450.505 94.8107 450.164 94.64C449.737 94.64 449.396 94.5973 449.14 94.512C448.799 94.3413 448.5 94.1707 448.244 94C447.988 93.8293 447.775 93.6587 447.604 93.488C447.519 93.3173 447.391 93.1893 447.22 93.104C446.964 92.9333 446.751 92.7627 446.58 92.592C446.409 92.2507 446.281 91.952 446.196 91.696C446.025 91.44 445.855 91.184 445.684 90.928C445.513 90.5867 445.428 90.2027 445.428 89.776C445.428 89.6053 445.385 89.4773 445.3 89.392C445.215 89.0507 445.172 88.6667 445.172 88.24C445.001 87.8987 444.916 87.5147 444.916 87.088C444.916 85.808 444.959 84.9973 445.044 84.656C445.129 84.3147 445.172 83.9307 445.172 83.504C445.172 83.1627 445.215 82.7787 445.3 82.352C445.3 81.9253 445.343 81.584 445.428 81.328C445.428 80.048 445.513 79.2373 445.684 78.896C445.684 64.816 445.641 57.5627 445.556 57.136C445.471 56.7947 445.428 56.4107 445.428 55.984C445.428 54.704 445.385 53.8933 445.3 53.552C445.3 53.2107 445.3 52.8267 445.3 52.4C445.3 51.9733 445.257 51.5893 445.172 51.248C445.172 49.968 445.087 49.1573 444.916 48.816C444.916 47.536 444.873 46.768 444.788 46.512C444.788 46.0853 444.745 45.6587 444.66 45.232C444.575 44.8907 444.532 44.5493 444.532 44.208C444.447 43.8667 444.361 43.5253 444.276 43.184C444.276 42.7573 444.191 42.3733 444.02 42.032C443.935 41.9467 443.892 41.8187 443.892 41.648C443.721 41.3067 443.636 40.9653 443.636 40.624C443.551 40.2827 443.465 39.9413 443.38 39.6C443.295 39.4293 443.209 39.2587 443.124 39.088C443.039 38.832 442.911 38.576 442.74 38.32C442.569 38.064 442.399 37.7653 442.228 37.424C442.057 37.168 441.887 36.912 441.716 36.656C441.545 36.4853 441.375 36.272 441.204 36.016C440.948 35.76 440.692 35.5467 440.436 35.376C440.265 35.2053 440.009 35.0773 439.668 34.992C439.412 34.8213 439.113 34.6933 438.772 34.608C438.431 34.4373 438.132 34.3093 437.876 34.224C437.535 34.1387 437.151 34.096 436.724 34.096C436.383 33.9253 435.999 33.84 435.572 33.84C435.145 33.84 434.761 33.7973 434.42 33.712C434.164 33.7973 433.823 33.84 433.396 33.84C432.969 33.84 432.628 33.9253 432.372 34.096C431.945 34.096 431.604 34.1813 431.348 34.352C431.007 34.4373 430.751 34.608 430.58 34.864C430.324 35.0347 430.111 35.248 429.94 35.504C429.855 35.5893 429.727 35.7173 429.556 35.888C429.385 36.0587 429.215 36.3147 429.044 36.656C428.959 36.912 428.873 37.2107 428.788 37.552C428.617 37.808 428.489 38.1067 428.404 38.448C428.404 38.8747 428.361 39.2587 428.276 39.6C428.276 40.88 428.191 41.648 428.02 41.904C428.02 50.864 428.105 55.5147 428.276 55.856C428.276 68.2293 428.191 74.544 428.02 74.8C428.02 76.08 427.977 76.8907 427.892 77.232C427.892 78.512 427.807 79.3227 427.636 79.664C427.636 80.944 427.593 81.7547 427.508 82.096C427.508 82.4373 427.508 82.8213 427.508 83.248C427.508 84.528 427.465 85.3387 427.38 85.68C427.38 87.3867 427.295 88.4107 427.124 88.752C427.124 89.6053 427.081 90.16 426.996 90.416C426.996 90.8427 426.911 91.2267 426.74 91.568C426.569 91.9947 426.399 92.464 426.228 92.976C426.143 93.232 425.972 93.4453 425.716 93.616C425.631 93.9573 425.417 94.1707 425.076 94.256C424.82 94.4267 424.564 94.64 424.308 94.896C423.881 94.896 423.54 94.9387 423.284 95.024C422.857 95.024 422.473 95.0667 422.132 95.152C419.145 95.152 417.481 95.1093 417.14 95.024C416.543 95.024 415.903 95.024 415.22 95.024C414.793 95.024 414.452 94.9813 414.196 94.896C413.769 94.896 413.385 94.8107 413.044 94.64C412.191 94.64 411.636 94.5973 411.38 94.512C410.953 94.4267 410.569 94.3413 410.228 94.256C409.887 94.1707 409.545 94.128 409.204 94.128C408.863 94.0427 408.521 93.9147 408.18 93.744C408.009 93.744 407.881 93.7013 407.796 93.616C407.455 93.5307 407.156 93.4027 406.9 93.232C406.644 92.976 406.388 92.7627 406.132 92.592C405.961 92.4213 405.791 92.1653 405.62 91.824C405.449 91.568 405.279 91.312 405.108 91.056C405.023 90.9707 404.98 90.8427 404.98 90.672C404.809 90.3307 404.681 89.9893 404.596 89.648C404.596 89.3067 404.511 88.9653 404.34 88.624C404.34 87.7707 404.34 86.9173 404.34 86.064C404.34 85.6373 404.425 85.2533 404.596 84.912C404.596 84.0587 404.639 83.504 404.724 83.248C404.724 82.3947 404.809 81.7973 404.98 81.456C404.98 81.0293 405.023 80.688 405.108 80.432C405.108 79.152 405.151 78.3413 405.236 78C405.236 76.72 405.321 75.9093 405.492 75.568C405.492 74.288 405.535 73.4773 405.62 73.136C405.62 72.7947 405.62 72.4107 405.62 71.984C405.62 66.4373 405.577 63.4933 405.492 63.152C405.492 60.592 405.407 59.184 405.236 58.928C405.236 57.648 405.193 56.8373 405.108 56.496C405.108 56.0693 405.108 55.6427 405.108 55.216C405.108 54.7893 405.065 54.4053 404.98 54.064C404.98 52.784 404.895 52.016 404.724 51.76C404.724 50.9067 404.681 50.3093 404.596 49.968C404.596 49.1147 404.511 48.5173 404.34 48.176C404.34 47.3227 404.297 46.768 404.212 46.512C404.212 45.6587 404.169 45.0613 404.084 44.72C403.913 44.464 403.828 44.1227 403.828 43.696C403.828 43.5253 403.785 43.3547 403.7 43.184C403.529 42.8427 403.444 42.4587 403.444 42.032C403.444 41.9467 403.401 41.8187 403.316 41.648C403.231 41.3067 403.188 40.9227 403.188 40.496C403.103 40.3253 403.017 40.1973 402.932 40.112C402.847 39.7707 402.761 39.4293 402.676 39.088C402.505 38.832 402.377 38.5333 402.292 38.192C402.121 37.936 401.993 37.6373 401.908 37.296C401.823 36.9547 401.652 36.6987 401.396 36.528C401.311 36.4427 401.225 36.3147 401.14 36.144C400.884 35.9733 400.671 35.76 400.5 35.504C400.415 35.4187 400.287 35.3333 400.116 35.248C399.86 35.0773 399.604 34.9067 399.348 34.736C399.007 34.6507 398.708 34.5227 398.452 34.352C398.111 34.1813 397.769 34.096 397.428 34.096C397.257 34.0107 397.129 33.9253 397.044 33.84C396.703 33.7547 396.319 33.712 395.892 33.712C395.465 33.712 395.081 33.6267 394.74 33.456C393.46 33.456 392.692 33.5413 392.436 33.712C391.924 33.8827 391.455 34.0533 391.028 34.224C390.687 34.3093 390.431 34.48 390.26 34.736C390.004 34.9067 389.748 35.0773 389.492 35.248C389.407 35.4187 389.321 35.5467 389.236 35.632C389.065 35.888 388.895 36.144 388.724 36.4C388.468 36.5707 388.34 36.8693 388.34 37.296C388.255 37.6373 388.169 37.9787 388.084 38.32C387.913 38.576 387.828 38.9173 387.828 39.344C387.743 39.6853 387.7 40.0693 387.7 40.496C387.7 40.9227 387.657 41.3067 387.572 41.648C387.572 41.9893 387.572 42.3733 387.572 42.8C387.572 50.0533 387.615 53.8507 387.7 54.192C387.7 60.1653 387.7 63.3653 387.7 63.792C387.785 64.1333 387.785 64.432 387.7 64.688C387.7 70.6613 387.657 73.8187 387.572 74.16C387.572 75.44 387.487 76.2507 387.316 76.592C387.316 77.872 387.316 78.6827 387.316 79.024C387.231 79.3653 387.188 79.7493 387.188 80.176C387.188 81.456 387.103 82.2667 386.932 82.608C386.932 83.0347 387.017 83.376 387.188 83.632C387.188 85.3387 387.145 86.4053 387.06 86.832C386.975 87.1733 386.932 87.5573 386.932 87.984C386.932 88.4107 386.932 88.7947 386.932 89.136C386.847 89.4773 386.761 89.8187 386.676 90.16C386.591 90.3307 386.505 90.5013 386.42 90.672C386.335 90.928 386.249 91.2693 386.164 91.696C385.993 91.8667 385.78 92.08 385.524 92.336C385.268 92.5067 385.055 92.6773 384.884 92.848C384.628 93.104 384.372 93.3173 384.116 93.488C383.519 93.6587 382.879 93.872 382.196 94.128C381.94 94.2133 381.599 94.256 381.172 94.256C381.001 94.3413 380.831 94.4267 380.66 94.512C380.404 94.5973 380.063 94.64 379.636 94.64C378.783 94.64 378.185 94.7253 377.844 94.896C376.991 94.896 376.351 94.8533 375.924 94.768C375.583 94.6827 375.199 94.64 374.772 94.64C373.919 94.64 373.364 94.5973 373.108 94.512C372.681 94.512 372.297 94.4267 371.956 94.256C371.529 94.256 371.188 94.2133 370.932 94.128C370.42 93.9573 369.951 93.7867 369.524 93.616C369.183 93.5307 368.841 93.4453 368.5 93.36C368.244 93.1893 367.945 93.0187 367.604 92.848C367.433 92.6773 367.177 92.5067 366.836 92.336C366.665 92.08 366.495 91.824 366.324 91.568C366.239 91.312 366.111 91.0133 365.94 90.672C365.855 90.416 365.812 90.0747 365.812 89.648C365.812 87.088 365.855 85.6373 365.94 85.296C365.94 84.8693 366.025 84.4853 366.196 84.144C366.196 83.2907 366.239 82.736 366.324 82.48C366.324 81.6267 366.281 81.0293 366.196 80.688C366.196 78.5547 366.111 77.3173 365.94 76.976C365.94 75.696 365.94 74.8853 365.94 74.544H365.812ZM479.648 75.952C479.733 75.696 479.776 75.3547 479.776 74.928C479.776 69.808 479.819 67.0773 479.904 66.736C479.904 65.0293 479.989 64.048 480.16 63.792C480.16 62.0853 480.203 61.0613 480.288 60.72C480.288 53.8933 480.245 50.3093 480.16 49.968C480.16 42.288 480.203 38.32 480.288 38.064C480.288 36.3573 480.331 35.3333 480.416 34.992C480.416 33.2853 480.501 32.304 480.672 32.048C480.672 23.088 480.715 18.4373 480.8 18.096C480.8 17.6693 480.885 17.2853 481.056 16.944C481.227 16.5173 481.397 16.048 481.568 15.536C481.653 15.28 481.824 15.0667 482.08 14.896C482.165 14.5547 482.336 14.2987 482.592 14.128C483.104 13.9573 483.573 13.7867 484 13.616C484.341 13.5307 484.725 13.4453 485.152 13.36C485.493 13.2747 485.792 13.1893 486.048 13.104C486.901 13.104 487.499 13.0187 487.84 12.848C488.267 12.848 488.651 12.848 488.992 12.848C489.333 12.7627 489.717 12.72 490.144 12.72C495.264 12.72 497.995 12.7627 498.336 12.848C502.603 12.848 504.907 12.9333 505.248 13.104C506.272 13.104 507.339 13.104 508.448 13.104C508.875 13.104 509.216 13.0187 509.472 12.848C510.752 12.848 511.563 12.8053 511.904 12.72C513.184 12.72 513.952 12.6773 514.208 12.592C515.488 12.592 516.299 12.5067 516.64 12.336C517.493 12.336 518.133 12.336 518.56 12.336C518.901 12.2507 519.285 12.208 519.712 12.208C520.139 12.208 520.48 12.1227 520.736 11.952C522.443 11.952 523.467 11.9093 523.808 11.824C525.515 11.824 526.496 11.8667 526.752 11.952C528.032 11.952 528.843 12.0373 529.184 12.208C529.611 12.208 529.995 12.2507 530.336 12.336C530.677 12.4213 531.019 12.5067 531.36 12.592C531.701 12.6773 532 12.7627 532.256 12.848C532.512 13.104 532.725 13.36 532.896 13.616C533.067 13.7013 533.195 13.7867 533.28 13.872C533.536 14.0427 533.707 14.2987 533.792 14.64C534.048 14.8107 534.219 15.0667 534.304 15.408C534.389 15.4933 534.475 15.6213 534.56 15.792C534.645 16.1333 534.773 16.432 534.944 16.688C535.115 16.944 535.2 17.2853 535.2 17.712C535.285 17.7973 535.371 17.9253 535.456 18.096C535.541 18.4373 535.627 18.7787 535.712 19.12C535.712 19.4613 535.712 19.8453 535.712 20.272C535.883 20.6133 535.968 20.9973 535.968 21.424C536.053 21.7653 536.096 22.1493 536.096 22.576C536.096 23.856 536.139 24.6667 536.224 25.008C536.309 25.3493 536.352 25.7333 536.352 26.16C536.352 33.84 536.267 37.8507 536.096 38.192C536.096 42.8853 536.053 45.36 535.968 45.616C535.968 48.6027 535.968 50.3093 535.968 50.736C535.797 51.0773 535.712 51.4613 535.712 51.888C535.712 54.448 535.712 55.8987 535.712 56.24C535.627 56.6667 535.584 57.0933 535.584 57.52C535.584 61.36 535.541 63.408 535.456 63.664C535.456 69.2107 535.499 72.1547 535.584 72.496C535.584 75.056 535.627 76.5067 535.712 76.848C535.712 78.9813 535.797 80.176 535.968 80.432C535.968 83.8453 535.883 85.7227 535.712 86.064C535.712 86.9173 535.669 87.472 535.584 87.728C535.584 88.1547 535.541 88.5387 535.456 88.88C535.456 89.3067 535.413 89.6907 535.328 90.032C535.243 90.4587 535.157 90.8 535.072 91.056C534.987 91.2267 534.944 91.3973 534.944 91.568C534.773 91.824 534.603 92.08 534.432 92.336C534.261 92.592 534.048 92.848 533.792 93.104C533.621 93.36 533.323 93.488 532.896 93.488C532.043 93.488 531.488 93.5307 531.232 93.616C523.979 93.616 520.224 93.488 519.968 93.232C519.797 92.976 519.669 92.6773 519.584 92.336C519.584 91.9947 519.541 91.6533 519.456 91.312C519.456 90.4587 519.499 89.8613 519.584 89.52C519.584 82.2667 519.627 78.512 519.712 78.256C519.712 76.5493 519.755 75.4827 519.84 75.056C519.925 74.7147 519.968 74.3307 519.968 73.904C519.968 73.4773 520.011 73.0933 520.096 72.752C520.096 70.6187 520.181 69.424 520.352 69.168C520.352 68.7413 520.267 68.3573 520.096 68.016C520.096 67.1627 520.053 66.5653 519.968 66.224C519.797 66.0533 519.584 66.0107 519.328 66.096C518.219 66.4373 517.109 66.8213 516 67.248C515.744 67.4187 515.445 67.5467 515.104 67.632C514.933 67.888 514.677 68.0587 514.336 68.144C514.165 68.2293 514.037 68.3147 513.952 68.4C513.611 68.4853 513.312 68.6133 513.056 68.784C512.8 68.9547 512.544 69.1253 512.288 69.296C512.117 69.296 511.947 69.3387 511.776 69.424C511.435 69.5093 511.136 69.6373 510.88 69.808C510.624 69.9787 510.368 70.1493 510.112 70.32C509.941 70.4053 509.771 70.448 509.6 70.448C509.344 70.6187 509.045 70.7467 508.704 70.832C508.533 71.088 508.277 71.2587 507.936 71.344C507.765 71.4293 507.637 71.5147 507.552 71.6C507.211 71.6853 506.912 71.8133 506.656 71.984C506.4 72.1547 506.144 72.3253 505.888 72.496C505.717 72.496 505.547 72.5387 505.376 72.624C505.035 72.7093 504.736 72.8373 504.48 73.008C504.224 73.1787 503.968 73.3493 503.712 73.52C503.541 73.6053 503.371 73.648 503.2 73.648C502.944 73.8187 502.645 73.9467 502.304 74.032C502.133 74.288 501.877 74.4587 501.536 74.544C500.768 74.8853 500 75.184 499.232 75.44C498.976 75.6107 498.635 75.696 498.208 75.696C497.867 75.7813 497.568 75.952 497.312 76.208C496.971 76.208 496.715 76.336 496.544 76.592C496.373 76.6773 496.245 76.7627 496.16 76.848C495.904 77.0187 495.733 77.2747 495.648 77.616C495.563 77.9573 495.477 78.2987 495.392 78.64C495.392 79.0667 495.349 79.4507 495.264 79.792C495.264 81.4987 495.264 82.5653 495.264 82.992C495.349 83.248 495.392 83.5893 495.392 84.016C495.392 84.4427 495.477 84.8267 495.648 85.168C495.648 85.5947 495.691 85.9787 495.776 86.32C495.776 86.7467 495.776 87.1733 495.776 87.6C495.861 87.9413 495.904 88.2827 495.904 88.624C495.904 90.3307 495.861 91.3547 495.776 91.696C495.776 92.1227 495.733 92.5067 495.648 92.848C495.477 93.104 495.307 93.36 495.136 93.616C490.016 93.616 487.243 93.616 486.816 93.616C486.475 93.7013 486.091 93.744 485.664 93.744C485.237 93.744 484.853 93.7867 484.512 93.872C484.171 93.9573 483.787 94 483.36 94C482.08 94 481.269 93.9147 480.928 93.744C480.757 93.744 480.629 93.7013 480.544 93.616C480.203 93.5307 479.947 93.36 479.776 93.104C479.691 92.7627 479.648 92.3787 479.648 91.952V75.952ZM496.8 59.056C496.8 60.336 496.971 60.9333 497.312 60.848C497.568 60.7627 497.824 60.6347 498.08 60.464C498.336 60.2933 498.635 60.1227 498.976 59.952C499.147 59.7813 499.36 59.6107 499.616 59.44C499.872 59.2693 500.128 59.0987 500.384 58.928C500.725 58.8427 501.024 58.7147 501.28 58.544C501.536 58.3733 501.792 58.2027 502.048 58.032C502.219 57.9467 502.389 57.904 502.56 57.904C502.901 57.7333 503.2 57.5627 503.456 57.392C503.627 57.2213 503.883 57.0933 504.224 57.008C504.651 56.8373 505.12 56.6667 505.632 56.496C505.888 56.3253 506.144 56.1547 506.4 55.984C506.656 55.8133 506.955 55.6853 507.296 55.6C507.637 55.4293 507.936 55.3013 508.192 55.216C509.728 54.6187 511.264 54.0213 512.8 53.424C513.141 53.3387 513.44 53.2107 513.696 53.04C514.037 52.9547 514.336 52.8267 514.592 52.656C514.848 52.4853 515.147 52.3573 515.488 52.272C515.744 52.1013 516.043 51.9733 516.384 51.888C516.64 51.7173 516.939 51.5893 517.28 51.504C517.621 51.3333 517.92 51.2053 518.176 51.12C518.517 51.0347 518.816 50.9067 519.072 50.736C519.328 50.48 519.584 50.3093 519.84 50.224C520.181 50.1387 520.437 49.968 520.608 49.712C520.779 49.456 520.864 49.1147 520.864 48.688C520.949 48.3467 520.992 47.9627 520.992 47.536C520.992 39.4293 520.949 35.2053 520.864 34.864C520.864 33.584 520.821 32.7733 520.736 32.432C520.395 32.3467 520.053 32.2613 519.712 32.176C519.371 32.0907 519.029 32.0053 518.688 31.92C517.408 31.92 516.597 31.8773 516.256 31.792C506.869 31.792 502.048 31.7067 501.792 31.536C500.939 31.536 500.341 31.6213 500 31.792C499.573 31.792 499.232 31.8347 498.976 31.92C498.891 32.0907 498.848 32.2613 498.848 32.432C498.677 32.688 498.592 33.0293 498.592 33.456C498.507 33.7973 498.464 34.1813 498.464 34.608C498.464 35.888 498.421 36.6987 498.336 37.04C498.251 37.4667 498.208 37.8933 498.208 38.32C498.208 38.6613 498.165 39.0027 498.08 39.344C498.08 40.1973 498.037 40.7947 497.952 41.136C497.952 42.416 497.867 43.2267 497.696 43.568C497.696 44.4213 497.653 44.976 497.568 45.232C497.568 46.512 497.483 47.3227 497.312 47.664C497.312 48.5173 497.269 49.072 497.184 49.328C497.184 54.448 497.141 57.1787 497.056 57.52L496.8 59.056ZM548.428 85.808C548.599 85.4667 548.684 85.0827 548.684 84.656C548.684 84.2293 548.727 83.888 548.812 83.632C548.812 83.2053 548.855 82.8213 548.94 82.48C548.94 82.0533 549.025 81.6693 549.196 81.328C549.025 81.072 548.94 80.7307 548.94 80.304C548.94 77.3173 548.897 75.6533 548.812 75.312C548.812 74.8853 548.812 74.4587 548.812 74.032C548.812 73.1787 548.769 72.624 548.684 72.368C548.684 71.088 548.727 70.2773 548.812 69.936C548.812 67.376 548.855 65.9253 548.94 65.584C548.94 64.304 549.025 63.536 549.196 63.28C549.196 62 549.239 61.1893 549.324 60.848C549.324 59.9947 549.409 59.3973 549.58 59.056C549.58 56.496 549.623 55.088 549.708 54.832C549.708 52.272 549.751 50.7787 549.836 50.352C549.836 50.0107 549.836 49.6267 549.836 49.2C549.836 36.8267 549.793 30.512 549.708 30.256C549.708 27.2693 549.665 25.5627 549.58 25.136C549.58 24.7947 549.58 24.4107 549.58 23.984C549.58 19.7173 549.623 17.4133 549.708 17.072C549.708 16.6453 549.751 16.304 549.836 16.048C549.836 15.6213 549.921 15.2373 550.092 14.896C550.177 14.64 550.348 14.384 550.604 14.128C551.031 14.128 551.372 14.1707 551.628 14.256C554.188 14.256 555.639 14.3413 555.98 14.512C557.687 14.512 558.668 14.4267 558.924 14.256C559.351 14.256 559.777 14.256 560.204 14.256C560.545 14.1707 560.716 14.3413 560.716 14.768C560.801 15.1093 560.801 15.408 560.716 15.664C560.716 16.5173 560.673 17.1147 560.588 17.456C560.673 17.7973 560.759 18.096 560.844 18.352C561.015 18.6933 561.228 18.9493 561.484 19.12C561.569 19.2053 561.697 19.248 561.868 19.248C562.209 19.4187 562.551 19.5467 562.892 19.632C563.233 19.632 563.575 19.5893 563.916 19.504C564.343 19.504 564.727 19.4187 565.068 19.248C565.409 19.1627 565.751 19.12 566.092 19.12C566.263 19.0347 566.433 18.992 566.604 18.992C566.945 18.8213 567.244 18.6933 567.5 18.608C567.756 18.352 568.012 18.1813 568.268 18.096C568.439 18.0107 568.609 17.9253 568.78 17.84C569.036 17.7547 569.335 17.6267 569.676 17.456C569.847 17.2853 570.103 17.1147 570.444 16.944C570.529 16.944 570.657 16.9013 570.828 16.816C571.169 16.7307 571.468 16.6027 571.724 16.432C571.98 16.2613 572.279 16.1333 572.62 16.048C572.961 15.9627 573.26 15.8347 573.516 15.664C573.857 15.5787 574.199 15.4933 574.54 15.408C574.881 15.2373 575.265 15.152 575.692 15.152C575.948 15.0667 576.289 15.024 576.716 15.024C577.057 14.9387 577.441 14.896 577.868 14.896C578.295 14.896 578.679 14.8533 579.02 14.768C579.447 14.6827 579.873 14.64 580.3 14.64C581.58 14.64 582.348 14.7253 582.604 14.896C583.457 14.896 584.055 14.9387 584.396 15.024C584.823 15.024 585.164 15.0667 585.42 15.152C585.847 15.152 586.231 15.2373 586.572 15.408C586.913 15.4933 587.297 15.536 587.724 15.536C587.98 15.7067 588.279 15.8347 588.62 15.92C589.047 15.92 589.388 15.9627 589.644 16.048C590.071 16.1333 590.455 16.2187 590.796 16.304C592.161 16.816 593.569 17.328 595.02 17.84C595.276 18.0107 595.575 18.1387 595.916 18.224C596.172 18.3093 596.471 18.4373 596.812 18.608C597.068 18.7787 597.324 18.9493 597.58 19.12C597.836 19.2053 598.135 19.3333 598.476 19.504C598.561 19.5893 598.647 19.7173 598.732 19.888C598.988 20.0587 599.244 20.2293 599.5 20.4C599.756 20.5707 600.012 20.7413 600.268 20.912C600.439 21.168 600.695 21.3387 601.036 21.424C601.207 21.68 601.463 21.8507 601.804 21.936C601.975 22.192 602.188 22.3627 602.444 22.448C602.615 22.6187 602.743 22.7467 602.828 22.832C602.999 23.088 603.169 23.3013 603.34 23.472C603.681 23.6427 603.937 23.856 604.108 24.112C604.193 24.1973 604.321 24.2827 604.492 24.368C604.748 24.5387 604.961 24.752 605.132 25.008C605.217 25.0933 605.303 25.2213 605.388 25.392C605.559 25.5627 605.772 25.776 606.028 26.032C606.284 26.2027 606.54 26.3733 606.796 26.544C606.881 26.8853 607.052 27.1413 607.308 27.312C607.564 27.9093 607.82 28.5067 608.076 29.104C608.161 29.4453 608.204 29.8293 608.204 30.256C608.204 31.9627 608.247 32.9867 608.332 33.328C608.332 35.4613 608.417 36.656 608.588 36.912C608.588 39.472 608.631 40.9227 608.716 41.264C608.716 44.2507 608.716 45.9147 608.716 46.256C608.631 46.5973 608.588 46.9813 608.588 47.408C608.588 49.5413 608.503 50.7787 608.332 51.12C608.332 53.68 608.289 55.1307 608.204 55.472C608.204 58.032 608.161 59.44 608.076 59.696C608.076 63.1093 608.119 64.9867 608.204 65.328C608.204 67.888 608.247 69.296 608.332 69.552C608.332 71.2587 608.417 72.2827 608.588 72.624C608.588 73.904 608.631 74.7147 608.716 75.056C608.716 79.3227 608.759 81.584 608.844 81.84C608.929 82.2667 608.887 82.6507 608.716 82.992C608.716 85.9787 608.673 87.6 608.588 87.856C608.588 88.7093 608.503 89.3067 608.332 89.648C608.332 90.0747 608.289 90.4587 608.204 90.8C608.204 91.2267 608.161 91.568 608.076 91.824C607.905 92.1653 607.82 92.5493 607.82 92.976C607.735 93.3173 607.564 93.5733 607.308 93.744C607.052 93.9147 606.753 94.0427 606.412 94.128C605.985 94.128 605.559 94.128 605.132 94.128C604.705 94.128 604.364 94.0853 604.108 94C603.681 94 603.297 93.9147 602.956 93.744C602.529 93.744 602.188 93.7013 601.932 93.616C600.225 93.616 599.159 93.6587 598.732 93.744C598.391 93.744 598.007 93.744 597.58 93.744C596.727 93.744 596.129 93.8293 595.788 94C594.935 94 594.38 94.0427 594.124 94.128C593.271 94.128 592.673 94.0853 592.332 94C591.905 94 591.521 93.9147 591.18 93.744C591.095 93.744 590.967 93.7013 590.796 93.616C590.455 93.5307 590.156 93.4027 589.9 93.232C589.644 92.976 589.388 92.7627 589.132 92.592C588.961 92.4213 588.791 92.208 588.62 91.952C588.364 91.696 588.193 91.44 588.108 91.184C588.023 90.8427 587.895 90.544 587.724 90.288C587.639 89.9467 587.596 89.5627 587.596 89.136C587.425 88.7947 587.297 88.496 587.212 88.24C587.212 85.2533 587.255 83.5893 587.34 83.248C587.34 82.3947 587.425 81.7973 587.596 81.456C587.596 80.176 587.639 79.408 587.724 79.152C587.724 72.3253 587.767 68.7413 587.852 68.4C587.937 67.9733 587.98 67.5467 587.98 67.12C587.98 62 587.895 59.312 587.724 59.056C587.724 55.6427 587.681 53.7653 587.596 53.424C587.596 52.144 587.511 51.3333 587.34 50.992C587.34 49.712 587.297 48.944 587.212 48.688C587.212 47.8347 587.169 47.2373 587.084 46.896C587.084 46.0427 586.999 45.488 586.828 45.232C586.828 44.8053 586.785 44.3787 586.7 43.952C586.7 43.6107 586.7 43.2267 586.7 42.8C586.615 42.6293 586.529 42.4587 586.444 42.288C586.359 42.032 586.273 41.7333 586.188 41.392C586.188 40.9653 586.103 40.624 585.932 40.368C585.932 40.1973 585.889 40.0267 585.804 39.856C585.719 39.5147 585.676 39.1307 585.676 38.704C585.591 38.5333 585.505 38.4053 585.42 38.32C585.335 37.9787 585.207 37.68 585.036 37.424C584.865 37.168 584.695 36.912 584.524 36.656C584.439 36.3147 584.268 36.0587 584.012 35.888C583.585 35.4613 583.116 35.0773 582.604 34.736C582.348 34.5653 582.092 34.3947 581.836 34.224C581.665 34.1387 581.495 34.096 581.324 34.096C581.068 33.9253 580.769 33.7973 580.428 33.712C580.087 33.5413 579.788 33.4133 579.532 33.328C579.191 33.2427 578.807 33.2 578.38 33.2C578.209 33.1147 578.081 33.0293 577.996 32.944C577.655 32.8587 577.271 32.816 576.844 32.816C575.991 32.816 575.393 32.8587 575.052 32.944C574.625 32.944 574.284 33.0293 574.028 33.2C573.687 33.2853 573.388 33.3707 573.132 33.456C572.791 33.6267 572.492 33.7973 572.236 33.968C572.151 34.0533 572.065 34.1813 571.98 34.352C571.724 34.5227 571.511 34.736 571.34 34.992C571.169 35.248 570.999 35.504 570.828 35.76C570.743 36.1013 570.657 36.4 570.572 36.656C570.401 36.9973 570.316 37.3813 570.316 37.808C570.231 38.1493 570.188 38.5333 570.188 38.96C570.188 39.3867 570.103 39.728 569.932 39.984C569.932 40.4107 569.889 40.7947 569.804 41.136C569.804 48.816 569.847 52.8267 569.932 53.168C569.932 59.1413 570.017 62.256 570.188 62.512C570.188 65.4987 570.103 67.1627 569.932 67.504C569.932 69.3813 569.932 71.3013 569.932 73.264C569.932 73.6907 569.889 74.032 569.804 74.288C569.804 75.9947 569.761 77.0187 569.676 77.36C569.676 78.64 569.591 79.4507 569.42 79.792C569.42 81.4987 569.377 82.48 569.292 82.736C569.292 83.1627 569.292 83.5893 569.292 84.016C569.292 84.4427 569.292 84.8693 569.292 85.296C569.377 85.6373 569.377 85.936 569.292 86.192C569.292 87.472 569.207 88.2827 569.036 88.624C569.036 88.7947 568.993 88.9653 568.908 89.136C568.823 89.392 568.78 89.7333 568.78 90.16C568.695 90.3307 568.609 90.5013 568.524 90.672C568.439 90.928 568.268 91.184 568.012 91.44C567.841 91.696 567.671 91.952 567.5 92.208C567.415 92.2933 567.329 92.4213 567.244 92.592C567.073 92.7627 566.817 92.9333 566.476 93.104C566.305 93.36 566.007 93.488 565.58 93.488C565.409 93.488 565.239 93.5307 565.068 93.616C564.812 93.7013 564.471 93.744 564.044 93.744C563.191 93.744 562.593 93.8293 562.252 94C559.692 94 558.241 93.9147 557.9 93.744C556.62 93.744 555.852 93.7013 555.596 93.616C554.743 93.616 554.145 93.5733 553.804 93.488C553.463 93.4027 553.121 93.3173 552.78 93.232C552.609 93.232 552.396 93.1893 552.14 93.104C551.799 93.0187 551.457 92.9333 551.116 92.848C551.031 92.848 550.903 92.8053 550.732 92.72C550.391 92.6347 550.092 92.464 549.836 92.208C549.58 92.0373 549.367 91.8667 549.196 91.696C549.025 91.184 548.855 90.7147 548.684 90.288C548.513 89.9467 548.428 89.5627 548.428 89.136V85.808Z" fill="#0146F9"/>
</svg>
